<svg width="173" height="51" fill="none" xmlns="http://www.w3.org/2000/svg"><g clip-path="url(#clip0_7492_4793)"><path fill-rule="evenodd" clip-rule="evenodd" d="M.248 44.2V6.8A6.8 6.8 0 017.046 0H165.45a6.8 6.8 0 016.798 6.8v37.4a6.8 6.8 0 01-6.798 6.8H7.046a6.8 6.8 0 01-6.798-6.8zm1.02 0V6.8a5.78 5.78 0 015.778-5.78H165.45a5.78 5.78 0 015.778 5.78v37.4a5.78 5.78 0 01-5.778 5.78H7.046a5.78 5.78 0 01-5.778-5.78z" fill="#fff"/><path fill-rule="evenodd" clip-rule="evenodd" d="M21.716 9.35c-6.634 0-9.06 2.427-9.06 9.061V32.59c0 6.634 2.426 9.061 9.06 9.061h14.167c6.634 0 9.065-2.427 9.065-9.061V18.411c0-6.634-2.427-9.06-9.061-9.06H21.716z" fill="url(#paint0_linear_7492_4793)"/><path fill-rule="evenodd" clip-rule="evenodd" d="M26.741 28.083h1.296l-.65-1.513-.646 1.513zm-.32.763l-.384.88h-.876l1.863-4.226h.756l1.855 4.226h-.899l-.38-.88h-1.934zm14.092.877h.846V25.5h-.846v4.223zm-3.368-1.814h1.56v-.77h-1.56v-.866h2.264v-.77H36.3v4.223h3.192v-.77h-2.346v-1.047zm-3.363.499l-.96-2.908h-.7l-.96 2.908-.933-2.906h-.914l1.474 4.226h.71l.961-2.776.961 2.776h.716l1.47-4.226h-.89l-.935 2.906zm-9.913-.487c0 .687-.34 1.054-.96 1.054-.624 0-.967-.378-.967-1.084v-2.388h-.858v2.418c0 1.189.661 1.87 1.813 1.87 1.163 0 1.83-.694 1.83-1.906V25.5h-.858v2.42zm-4.831-2.42h.857v4.228h-.857V28.01H17.1v1.718h-.858V25.5h.858v1.706h1.937V25.5zm9.764-5.384a5.389 5.389 0 01-5.383-5.384h.76a4.628 4.628 0 004.623 4.623 4.628 4.628 0 004.621-4.623h.76a5.389 5.389 0 01-5.381 5.384z" fill="#fff"/><path d="M62.19 38.08l-1.453-4.044H55.17l-1.424 4.044h-2.51l5.448-14.623h2.589L64.72 38.08h-2.53zm-2.08-6.096l-1.365-3.965a29.96 29.96 0 01-.777-2.51c-.179.817-.441 1.71-.786 2.68l-1.315 3.795h4.242zm11.564 6.295c-1.394 0-2.476-.501-3.246-1.504h-.14c.093.93.14 1.494.14 1.693v4.513h-2.34V27.063h1.892c.053.206.162.697.328 1.474h.12c.73-1.115 1.825-1.673 3.286-1.673 1.374 0 2.443.498 3.207 1.494.77.996 1.155 2.394 1.155 4.193 0 1.8-.392 3.205-1.175 4.214-.777 1.01-1.852 1.514-3.227 1.514zm-.567-9.503c-.93 0-1.61.273-2.042.817-.425.545-.637 1.415-.637 2.61v.348c0 1.342.212 2.315.637 2.919.425.598 1.119.897 2.081.897.81 0 1.434-.332 1.873-.997.438-.664.657-1.61.657-2.838 0-1.236-.22-2.169-.657-2.8-.432-.637-1.07-.956-1.912-.956zm12.969 9.503c-1.395 0-2.477-.501-3.247-1.504h-.14c.094.93.14 1.494.14 1.693v4.513h-2.34V27.063h1.892c.053.206.162.697.329 1.474h.119c.73-1.115 1.826-1.673 3.286-1.673 1.375 0 2.444.498 3.207 1.494.77.996 1.155 2.394 1.155 4.193 0 1.8-.392 3.205-1.175 4.214-.777 1.01-1.852 1.514-3.227 1.514zm-.568-9.503c-.93 0-1.61.273-2.042.817-.425.545-.637 1.415-.637 2.61v.348c0 1.342.212 2.315.637 2.919.425.598 1.119.897 2.082.897.81 0 1.434-.332 1.872-.997.438-.664.657-1.61.657-2.838 0-1.236-.219-2.169-.657-2.8-.432-.637-1.069-.956-1.912-.956zm13.586 1.404h5.358v7.312c-.876.286-1.72.488-2.53.608-.803.12-1.673.179-2.609.179-2.204 0-3.904-.65-5.099-1.952-1.195-1.308-1.792-3.151-1.792-5.529 0-2.344.674-4.177 2.022-5.498 1.347-1.328 3.203-1.992 5.566-1.992 1.52 0 2.961.292 4.322.876l-.836 1.982c-1.182-.544-2.364-.816-3.545-.816-1.554 0-2.782.488-3.685 1.464s-1.354 2.31-1.354 4.004c0 1.78.405 3.135 1.214 4.064.817.923 1.989 1.385 3.516 1.385.77 0 1.593-.096 2.47-.289v-3.755h-3.018V30.18zm15.2 7.9l-.468-1.534h-.08c-.531.67-1.065 1.129-1.603 1.374-.538.24-1.228.359-2.072.359-1.082 0-1.928-.292-2.539-.877-.604-.584-.906-1.41-.906-2.48 0-1.135.421-1.992 1.264-2.57.844-.577 2.128-.893 3.854-.946l1.903-.06v-.587c0-.704-.166-1.229-.498-1.574-.326-.352-.834-.528-1.524-.528-.564 0-1.105.083-1.623.249-.518.166-1.016.362-1.494.588l-.757-1.674a7.999 7.999 0 011.962-.707 8.854 8.854 0 012.012-.25c1.4 0 2.456.306 3.166.917.717.611 1.076 1.57 1.076 2.879v7.42h-1.673zm-3.486-1.594c.85 0 1.531-.236 2.042-.707.518-.478.777-1.146.777-2.002v-.957l-1.415.06c-1.102.04-1.905.226-2.41.558-.497.325-.746.827-.746 1.504 0 .492.146.873.438 1.146.292.265.73.398 1.314.398zm10.46 1.594h-2.341v-15.5h2.341v15.5zm5.39 0h-2.34v-15.5h2.34v15.5zm7.86.199c-1.713 0-3.054-.498-4.023-1.494-.963-1.003-1.444-2.38-1.444-4.134 0-1.8.448-3.214 1.344-4.243.897-1.03 2.128-1.544 3.695-1.544 1.454 0 2.602.441 3.446 1.325.843.883 1.264 2.098 1.264 3.645V33.1h-7.339c.033 1.07.322 1.893.866 2.47.545.572 1.312.857 2.301.857.65 0 1.255-.06 1.812-.179a9.757 9.757 0 001.813-.618v1.903a7.189 7.189 0 01-1.733.578 10.62 10.62 0 01-2.002.169zm-.428-9.642c-.744 0-1.341.236-1.793.707-.444.471-.71 1.159-.796 2.062h4.999c-.013-.91-.232-1.597-.657-2.062-.425-.471-1.009-.707-1.753-.707zm12.65-1.773c.472 0 .86.033 1.165.1l-.229 2.18a4.419 4.419 0 00-1.035-.119c-.936 0-1.697.306-2.281.917-.577.61-.866 1.404-.866 2.38v5.758h-2.341V27.063h1.833l.309 1.942h.119a4.382 4.382 0 011.424-1.563 3.42 3.42 0 011.902-.578zm1.238.199h2.549l2.241 6.246c.339.89.564 1.726.677 2.51h.08c.06-.366.169-.807.328-1.325.16-.525 1.003-3.002 2.53-7.431h2.529l-4.71 12.481c-.856 2.291-2.284 3.437-4.282 3.437a6.737 6.737 0 01-1.514-.17V40.96c.352.08.754.119 1.205.119 1.129 0 1.922-.654 2.38-1.962l.408-1.036-4.421-11.017zM58.66 14.37c0 1.185-.297 2.106-.89 2.764-.592.657-1.43.986-2.515.986-1.1 0-1.944-.326-2.535-.976-.587-.654-.881-1.583-.881-2.784 0-1.202.295-2.125.886-2.77.594-.644 1.44-.966 2.54-.966 1.082 0 1.918.327 2.51.981.59.654.886 1.576.886 2.764zm-5.556 0c0 .896.18 1.577.542 2.041.362.462.898.693 1.609.693.707 0 1.24-.23 1.598-.688.362-.458.543-1.14.543-2.047 0-.893-.18-1.57-.538-2.032-.355-.461-.886-.692-1.593-.692-.714 0-1.254.23-1.619.692-.361.462-.542 1.14-.542 2.032zm9.635 3.65h-1.19v-6.26h-2.142v-1.021h5.473v1.02h-2.141v6.261zm8.848 0h-1.4l-2.997-3.69v3.69H66v-7.28h1.19v3.526l2.948-3.526h1.304l-2.937 3.516 3.082 3.765zm5.786-5.08c0 .76-.25 1.343-.747 1.748-.498.405-1.207.608-2.126.608h-.757v2.724h-1.19v-7.28h2.096c.91 0 1.59.186 2.042.557.454.372.682.92.682 1.644zm-3.63 1.355h.632c.611 0 1.06-.107 1.345-.319.285-.213.428-.545.428-.996 0-.418-.128-.73-.383-.936-.256-.206-.654-.31-1.196-.31h-.826v2.56zm11.547.075c0 1.185-.297 2.106-.891 2.764-.591.657-1.43.986-2.515.986-1.099 0-1.944-.326-2.534-.976-.588-.654-.882-1.583-.882-2.784 0-1.202.296-2.125.886-2.77.595-.644 1.441-.966 2.54-.966 1.082 0 1.919.327 2.51.981.59.654.886 1.576.886 2.764zm-5.557 0c0 .896.18 1.577.543 2.041.362.462.898.693 1.608.693.707 0 1.24-.23 1.598-.688.362-.458.543-1.14.543-2.047 0-.893-.18-1.57-.538-2.032-.355-.461-.886-.692-1.593-.692-.714 0-1.253.23-1.618.692-.362.462-.543 1.14-.543 2.032zm7.12-3.631h1.09v3.785c0 .395-.01.795-.029 1.2-.02.402-.035.674-.045.817h.045l3.72-5.802h1.389v7.281h-1.096v-3.755c0-.575.032-1.272.095-2.092h-.04l-3.734 5.847h-1.395v-7.28zm3.122-.583c-.703 0-1.22-.126-1.548-.379-.326-.255-.506-.68-.543-1.275h1.06c.02.24.065.425.135.558a.65.65 0 00.309.29c.136.056.342.084.617.084.326 0 .573-.072.742-.214.17-.146.272-.386.309-.718h1.08c-.05.572-.25.99-.602 1.256-.352.265-.871.398-1.559.398zm7.469 7.864h-1.19v-6.26h-2.14v-1.021h5.471v1.02h-2.14v6.261zm7.38 0h-4.118v-7.28h4.118v1.006h-2.928v1.982h2.743v.996h-2.743v2.286h2.928v1.011zm4.227-7.281h2.161c1.003 0 1.726.146 2.171.438.448.292.672.754.672 1.385 0 .425-.109.778-.328 1.06-.219.283-.535.46-.946.533v.05c.511.096.886.287 1.125.573.242.282.363.666.363 1.15 0 .654-.229 1.167-.687 1.54-.454.368-1.088.552-1.902.552h-2.629v-7.28zm1.19 3.008h1.145c.498 0 .862-.078 1.091-.234.229-.16.343-.428.343-.807 0-.342-.124-.59-.373-.742-.246-.153-.637-.23-1.175-.23h-1.031v2.013zm0 .966v2.306h1.265c.498 0 .873-.095 1.125-.284.256-.192.384-.495.384-.906 0-.379-.13-.66-.389-.842-.259-.183-.652-.274-1.18-.274h-1.205z" fill="#fff"/></g><defs><linearGradient id="paint0_linear_7492_4793" x1="28.802" y1="9.35" x2="28.802" y2="41.65" gradientUnits="userSpaceOnUse"><stop stop-color="#FB6361"/><stop offset="1" stop-color="#ED3E45"/></linearGradient><clipPath id="clip0_7492_4793"><path fill="#fff" transform="translate(.248)" d="M0 0h172v51H0z"/></clipPath></defs></svg>