<svg width="173" height="51" fill="none" xmlns="http://www.w3.org/2000/svg"><g clip-path="url(#clip0_7492_4790)" fill="#fff"><path d="M41.94 25.884a6.31 6.31 0 013.005-5.294 6.46 6.46 0 00-5.089-2.751c-2.14-.225-4.217 1.28-5.308 1.28-1.112 0-2.792-1.258-4.6-1.22a6.776 6.776 0 00-5.703 3.477c-2.466 4.27-.627 10.544 1.735 13.995 1.182 1.69 2.563 3.577 4.37 3.51 1.769-.073 2.43-1.127 4.564-1.127 2.115 0 2.735 1.127 4.579 1.085 1.897-.031 3.093-1.698 4.233-3.404a13.972 13.972 0 001.936-3.942 6.097 6.097 0 01-3.722-5.61zM38.457 15.57a6.212 6.212 0 001.421-4.451 6.32 6.32 0 00-4.09 2.116 5.91 5.91 0 00-1.458 4.285 5.227 5.227 0 004.127-1.95zm25.838 19.033H58.26l-1.45 4.28h-2.556l5.717-15.833h2.656l5.716 15.833h-2.6l-1.448-4.28zm-5.41-1.974h4.784l-2.358-6.946h-.066l-2.36 6.946zm21.803.483c0 3.587-1.92 5.891-4.817 5.891a3.914 3.914 0 01-3.632-2.02h-.055v5.718h-2.37V27.34h2.294v1.92h.044a4.093 4.093 0 013.675-2.04c2.93 0 4.861 2.315 4.861 5.893zm-2.435 0c0-2.338-1.208-3.874-3.05-3.874-1.811 0-3.029 1.569-3.029 3.874 0 2.325 1.218 3.883 3.028 3.883 1.843 0 3.05-1.525 3.05-3.883zm15.14-.001c0 3.588-1.92 5.892-4.817 5.892a3.914 3.914 0 01-3.632-2.02h-.055v5.718h-2.37V27.34h2.294v1.92h.044a4.094 4.094 0 013.675-2.04c2.93 0 4.861 2.315 4.861 5.892zm-2.435 0c0-2.336-1.208-3.873-3.05-3.873-1.811 0-3.029 1.569-3.029 3.873 0 2.326 1.218 3.884 3.028 3.884 1.843 0 3.05-1.525 3.05-3.883zm10.832 1.36c.176 1.57 1.701 2.601 3.785 2.601 1.998 0 3.434-1.03 3.434-2.447 0-1.228-.866-1.964-2.918-2.469l-2.052-.494c-2.907-.702-4.257-2.062-4.257-4.268 0-2.732 2.381-4.608 5.761-4.608 3.346 0 5.639 1.876 5.716 4.608h-2.392c-.143-1.58-1.449-2.534-3.358-2.534-1.908 0-3.214.965-3.214 2.37 0 1.119.834 1.777 2.874 2.282l1.745.428c3.248.768 4.598 2.073 4.598 4.389 0 2.962-2.359 4.817-6.112 4.817-3.511 0-5.882-1.811-6.035-4.675h2.425zm14.836-9.864v2.732h2.195v1.877h-2.195v6.363c0 .989.439 1.45 1.404 1.45.261-.005.521-.023.78-.055v1.865a6.506 6.506 0 01-1.316.11c-2.337 0-3.249-.878-3.249-3.117v-6.616h-1.678v-1.877h1.678v-2.732h2.381zm3.466 8.504c0-3.631 2.139-5.914 5.475-5.914 3.347 0 5.476 2.283 5.476 5.915 0 3.642-2.118 5.914-5.476 5.914-3.357 0-5.475-2.273-5.475-5.915zm8.537 0c0-2.49-1.142-3.961-3.062-3.961s-3.06 1.481-3.06 3.962c0 2.501 1.14 3.96 3.06 3.96 1.92 0 3.062-1.459 3.062-3.96zm4.368-5.771h2.259v1.964h.055a2.757 2.757 0 012.777-2.086 3.7 3.7 0 01.812.089v2.216a3.318 3.318 0 00-1.065-.143 2.392 2.392 0 00-2.365 1.64 2.398 2.398 0 00-.104 1.016v6.846h-2.369V27.34zm16.827 8.152c-.319 2.096-2.359 3.534-4.97 3.534-3.359 0-5.443-2.25-5.443-5.86 0-3.62 2.096-5.969 5.343-5.969 3.194 0 5.202 2.194 5.202 5.694v.812h-8.153v.143a3.008 3.008 0 003.105 3.27 2.61 2.61 0 002.666-1.624h2.25zm-8.01-3.445h5.771a2.766 2.766 0 00-1.715-2.721 2.776 2.776 0 00-1.116-.209 2.92 2.92 0 00-2.718 1.805 2.932 2.932 0 00-.222 1.125z"/></g><rect x=".624" y=".5" width="171.124" height="50" rx="3.5" stroke="#fff"/><path d="M61.698 17.457c.681 0 1.274-.117 1.78-.352a2.767 2.767 0 001.175-.988c.279-.427.418-.928.418-1.504 0-.584-.135-1.054-.405-1.412-.265-.362-.634-.617-1.105-.765a2.21 2.21 0 00.848-.857c.223-.379.334-.823.334-1.333 0-.58-.139-1.062-.417-1.445a2.514 2.514 0 00-1.092-.863 3.678 3.678 0 00-1.459-.288c-.728 0-1.357.17-1.889.51-.53.34-.942.776-1.233 1.308l.771.582c.24-.45.548-.807.925-1.073.377-.27.844-.405 1.4-.405.587 0 1.065.15 1.433.451.373.296.56.71.56 1.242 0 .506-.176.91-.528 1.21-.35.296-.833.458-1.445.484l-.347.013h-.649v.928h.122a72.43 72.43 0 01.932.033c.415.013.792.07 1.13.17.339.1.608.268.81.503.201.231.302.56.302.988 0 .584-.202 1.055-.604 1.412-.403.353-.98.53-1.735.53-.723 0-1.3-.157-1.728-.471-.428-.314-.72-.693-.874-1.138l-.86.51c.145.358.366.691.661 1 .3.306.68.552 1.137.74.459.187 1.003.28 1.632.28zm6.69 0c1.212 0 2.092-.455 2.64-1.366v1.17h.842v-4.387a7.82 7.82 0 00-.038-.771 2.4 2.4 0 00-.167-.687 2.01 2.01 0 00-.945-1.046c-.44-.244-.978-.366-1.612-.366-.763 0-1.384.174-1.863.523-.48.349-.801.839-.964 1.471l.919.275c.132-.471.362-.816.687-1.034.33-.217.733-.326 1.208-.326.66 0 1.13.156 1.413.47.283.31.428.783.437 1.42-.308.043-.649.088-1.021.136-.369.048-.74.103-1.112.164-.372.061-.715.13-1.028.21-.518.139-.942.372-1.272.699-.33.322-.494.774-.494 1.353 0 .375.087.722.263 1.04.176.318.439.573.79.765.356.192.795.287 1.317.287zm.11-.83c-.373 0-.673-.06-.9-.183a1.212 1.212 0 01-.488-.477 1.327 1.327 0 01-.148-.602c0-.383.126-.671.38-.863a2.54 2.54 0 01.821-.418c.382-.105.825-.19 1.33-.255.506-.066.985-.127 1.44-.183 0 .16-.007.346-.02.555a3.27 3.27 0 01-.07.57 2.19 2.19 0 01-.746 1.327c-.402.353-.936.53-1.6.53zm5.045.634h.944v-6.14h3.81V10.2h-4.754v7.061zm5.966 3.139h.95v-3.982c.25.323.555.578.92.765.363.183.781.274 1.252.274.651 0 1.206-.163 1.664-.49a3.126 3.126 0 001.047-1.34c.244-.563.366-1.197.366-1.903 0-.702-.122-1.334-.366-1.896a3.11 3.11 0 00-1.04-1.334c-.455-.327-.999-.49-1.632-.49-.514 0-.966.104-1.356.314a2.68 2.68 0 00-.957.856V10.2h-.848v10.2zm3.026-3.838c-.493 0-.9-.122-1.22-.366a2.222 2.222 0 01-.72-1.014 4.173 4.173 0 01-.238-1.458c0-.832.178-1.51.533-2.033.36-.528.902-.792 1.626-.792.496 0 .905.125 1.227.373.325.249.567.586.726 1.014.158.427.237.906.237 1.438 0 .536-.081 1.018-.244 1.445a2.266 2.266 0 01-.72 1.02c-.32.249-.723.373-1.207.373zm5.323 3.838h.944l3.726-10.2h-.964l-2.1 5.806-2.281-5.806H86.18L89 17.242 87.857 20.4zm8.285-2.943c.488 0 .927-.087 1.317-.261.394-.179.704-.43.931-.752.232-.327.347-.715.347-1.164 0-.34-.075-.669-.225-.987a1.478 1.478 0 00-.693-.72 1.93 1.93 0 00.546-.653c.128-.257.192-.552.192-.883 0-.427-.107-.791-.32-1.092a2 2 0 00-.862-.7 2.92 2.92 0 00-1.207-.241c-.566 0-1.082.102-1.549.307a3.46 3.46 0 00-1.214.883l.604.647c.253-.27.561-.49.925-.66a2.658 2.658 0 011.163-.262c.407 0 .756.098 1.047.294.296.192.443.489.443.89 0 .383-.145.662-.436.837-.292.174-.68.261-1.163.261h-.81v.824h.823c.59 0 1.034.087 1.33.261.295.17.443.471.443.903 0 .418-.154.747-.463.987-.308.24-.717.36-1.227.36-.976 0-1.724-.445-2.242-1.334l-.758.49c.3.554.709.988 1.227 1.301.523.31 1.133.465 1.83.465zm9.525-7.257h-.79l-3.81 5.453V10.2h-.918v7.061h.796l3.803-5.498v5.498h.919V10.2zm3.686 7.061h.944V11.09h2.46v-.89h-5.865v.89h2.461v6.172zm7.565.196c.673 0 1.274-.167 1.806-.503.535-.336.94-.813 1.214-1.432l-.88-.346c-.442.906-1.167 1.36-2.178 1.36-.694 0-1.238-.22-1.632-.66-.39-.441-.604-1.066-.642-1.877h5.467c.034-1.247-.234-2.223-.803-2.93-.566-.71-1.362-1.065-2.39-1.065-.668 0-1.249.152-1.741.457a3.04 3.04 0 00-1.137 1.302c-.27.562-.405 1.229-.405 2 0 .746.135 1.395.405 1.949A3.07 3.07 0 00115.159 17c.501.305 1.088.457 1.76.457zm-.013-6.57c1.307 0 2.033.769 2.178 2.307h-4.458c.073-.745.304-1.316.694-1.713.389-.396.918-.595 1.586-.595zm7.159 6.374h3.232c.175 0 .362-.006.559-.02.201-.012.387-.043.558-.09a1.71 1.71 0 00.913-.628c.227-.306.34-.7.34-1.184 0-.697-.252-1.2-.758-1.51a1.295 1.295 0 00-.443-.183c.158-.07.304-.18.437-.327a1.48 1.48 0 00.315-.51c.077-.2.115-.427.115-.68 0-.454-.12-.84-.36-1.158a1.69 1.69 0 00-.938-.647 3.332 3.332 0 00-.584-.098 6.395 6.395 0 00-.527-.026h-2.859v7.061zm.951-3.942v-2.295h1.812c.047 0 .158.004.334.013.18.008.347.041.501.098a.875.875 0 01.507.399c.116.187.174.403.174.647 0 .227-.054.436-.161.628a.85.85 0 01-.488.405 1.68 1.68 0 01-.366.085c-.137.013-.261.02-.373.02h-1.94zm0 3.125v-2.301h2.101c.085 0 .182.002.289.006.111.005.214.018.308.04.291.043.527.165.707.366.18.196.27.449.27.758 0 .235-.06.453-.18.654a.857.857 0 01-.553.392c-.107.03-.229.052-.366.065-.137.014-.25.02-.34.02h-2.236z" fill="#fff"/><defs><clipPath id="clip0_7492_4790"><rect x=".124" width="172.124" height="51" rx="4" fill="#fff"/></clipPath></defs></svg>