<svg width="173" height="51" fill="none" xmlns="http://www.w3.org/2000/svg"><g clip-path="url(#clip0_7492_4787)"><path d="M165.749 1.02a5.361 5.361 0 015.355 5.355v38.25a5.362 5.362 0 01-5.355 5.355H6.375a5.361 5.361 0 01-5.355-5.355V6.375A5.361 5.361 0 016.375 1.02h159.374zm0-1.02H6.375A6.394 6.394 0 000 6.375v38.25A6.394 6.394 0 006.375 51h159.374a6.392 6.392 0 006.375-6.375V6.375A6.392 6.392 0 00165.749 0z" fill="#fff"/><path d="M86.873 27.733a5.423 5.423 0 105.443 5.423 5.345 5.345 0 00-5.443-5.423zm0 8.71a3.294 3.294 0 113.06-3.287 3.137 3.137 0 01-3.06 3.287zm-11.875-8.71a5.423 5.423 0 105.444 5.423 5.347 5.347 0 00-5.444-5.423zm0 8.71a3.294 3.294 0 113.06-3.287 3.137 3.137 0 01-3.06 3.287zm-14.125-7.046v2.3h5.505a4.8 4.8 0 01-1.253 2.897 5.636 5.636 0 01-4.252 1.684 6.122 6.122 0 010-12.242 5.867 5.867 0 014.15 1.643l1.622-1.622a8.024 8.024 0 00-5.772-2.322A8.42 8.42 0 0052.98 33.41a8.422 8.422 0 007.892 5.17 7.699 7.699 0 005.875-2.362 7.602 7.602 0 001.992-5.382 7.495 7.495 0 00-.123-1.438h-7.744zm57.768 1.787a5.045 5.045 0 00-4.643-3.45 5.155 5.155 0 00-5.114 5.422 5.291 5.291 0 001.539 3.855 5.304 5.304 0 003.843 1.568 5.395 5.395 0 004.518-2.403l-1.848-1.233a3.099 3.099 0 01-2.67 1.5 2.76 2.76 0 01-2.63-1.644l7.251-2.999-.246-.616zm-7.395 1.808a2.986 2.986 0 011.694-2.88 2.98 2.98 0 011.141-.284 2.099 2.099 0 012.013 1.15l-4.848 2.014zm-5.895 5.258h2.382V22.31h-2.382v15.94zm-3.903-9.305h-.082a3.75 3.75 0 00-2.855-1.212 5.428 5.428 0 000 10.846 3.696 3.696 0 002.855-1.233h.082v.78c0 2.076-1.109 3.185-2.896 3.185a3 3 0 01-2.732-1.931l-2.075.863a5.167 5.167 0 004.807 3.204c2.793 0 5.156-1.643 5.156-5.649v-9.736h-2.26v.883zm-2.732 7.498a3.298 3.298 0 010-6.573 3.056 3.056 0 012.896 3.306 3.04 3.04 0 01-.753 2.25 3.041 3.041 0 01-2.143 1.017zm31.086-14.132h-5.701v15.94h2.379v-6.04h3.322a4.959 4.959 0 100-9.9zm.061 7.682h-3.383v-5.464h3.383a2.73 2.73 0 012.789 2.732 2.73 2.73 0 01-2.789 2.732zm14.703-2.289a4.465 4.465 0 00-4.245 2.44l2.112.882a2.259 2.259 0 012.174-1.169 2.29 2.29 0 012.502 2.05v.165a5.263 5.263 0 00-2.481-.615c-2.277 0-4.594 1.25-4.594 3.588a3.677 3.677 0 003.958 3.507 3.355 3.355 0 003.035-1.559h.082v1.23h2.296v-6.11c0-2.83-2.112-4.409-4.839-4.409zm-.287 8.736c-.779 0-1.866-.39-1.866-1.354 0-1.23 1.353-1.702 2.522-1.702.759-.02 1.51.164 2.174.533a2.888 2.888 0 01-2.83 2.523zm13.493-8.387l-2.727 6.91h-.082l-2.83-6.91h-2.563l4.244 9.658-2.419 5.373h2.481l6.541-15.031h-2.645zM136.343 38.25h2.379V22.31h-2.379v15.94z" fill="#fff"/><path d="M13.305 9.611c-.418.5-.629 1.14-.59 1.791V39.6c-.04.65.172 1.292.59 1.791l.095.092 15.795-15.795v-.373L13.4 9.519l-.094.092z" fill="url(#paint0_linear_7492_4787)"/><path d="M34.46 30.955l-5.265-5.267v-.373l5.267-5.266.118.067 6.239 3.545c1.781 1.012 1.781 2.669 0 3.682l-6.239 3.545-.12.067z" fill="url(#paint1_linear_7492_4787)"/><path d="M34.58 30.887L29.195 25.5l-15.89 15.89a2.074 2.074 0 002.65.079L34.58 30.887z" fill="url(#paint2_linear_7492_4787)"/><path d="M34.58 20.116L15.955 9.533a2.074 2.074 0 00-2.65.078l15.89 15.89 5.385-5.386z" fill="url(#paint3_linear_7492_4787)"/><path opacity=".2" d="M34.462 30.768L15.955 41.283a2.122 2.122 0 01-2.555.014l-.095.095.095.092a2.122 2.122 0 002.555-.014L34.58 30.887l-.118-.119z" fill="#2B313C"/><path opacity=".12" d="M13.305 41.206a2.554 2.554 0 01-.59-1.791v.186a2.55 2.55 0 00.59 1.791l.095-.095-.095-.091zm27.513-14.05l-6.357 3.612.12.119 6.237-3.545a2.238 2.238 0 001.337-1.84 2.375 2.375 0 01-1.337 1.654z" fill="#2B313C"/><path opacity=".25" d="M15.954 9.72l24.864 14.126a2.373 2.373 0 011.337 1.655 2.236 2.236 0 00-1.337-1.84L15.955 9.532c-1.783-1.012-3.24-.171-3.24 1.87v.186c0-2.04 1.457-2.882 3.24-1.87z" fill="#fff"/></g><path d="M52.275 17.85h.81v-1.253h5.674v1.253h.805v-1.99h-.568V9.08L54.1 9.076l-.083 1.519a63.8 63.8 0 01-.088 1.341c-.03.432-.07.879-.121 1.342-.037.316-.081.63-.133.94a3.597 3.597 0 01-.226.829 1.42 1.42 0 01-.43.595c-.187.146-.435.22-.744.22v1.988zm1.55-1.989c.257-.219.433-.517.529-.892.099-.376.18-.863.242-1.462.07-.654.122-1.275.155-1.863.036-.588.071-1.199.104-1.832l3.33.005v6.044h-4.36zm10.165.893c.794 0 1.463-.166 2.007-.496.544-.33.956-.79 1.235-1.378.28-.591.419-1.272.419-2.04 0-.773-.14-1.453-.42-2.041a3.162 3.162 0 00-1.234-1.378c-.544-.33-1.213-.496-2.007-.496-.79 0-1.458.165-2.002.496-.544.33-.956.79-1.235 1.378-.28.588-.419 1.268-.419 2.04 0 .77.14 1.45.42 2.041.279.588.69 1.047 1.234 1.378.544.33 1.211.496 2.002.496zm0-.736c-.622-.004-1.142-.14-1.56-.407a2.448 2.448 0 01-.932-1.117c-.206-.477-.307-1.028-.304-1.655.008-.626.114-1.178.32-1.654.206-.48.515-.854.926-1.122.412-.272.928-.406 1.55-.402.621.003 1.14.139 1.555.407.415.268.726.64.931 1.117.21.476.315 1.028.315 1.654 0 .627-.105 1.18-.314 1.66a2.448 2.448 0 01-.932 1.117c-.416.268-.934.402-1.555.402zm7.98.736c.922 0 1.676-.223 2.26-.668.585-.45.986-1.05 1.203-1.801l-.828-.204c-.169.592-.472 1.063-.91 1.415-.437.348-1.012.522-1.725.522-.621 0-1.141-.134-1.56-.402a2.515 2.515 0 01-.938-1.122c-.206-.477-.307-1.028-.303-1.655.007-.626.114-1.178.32-1.654a2.45 2.45 0 01.926-1.122c.415-.268.934-.402 1.555-.402.713 0 1.288.175 1.726.527.437.348.74.818.91 1.41l.827-.205c-.217-.751-.618-1.35-1.203-1.795-.584-.449-1.338-.673-2.26-.673-.79 0-1.458.165-2.002.496-.544.33-.955.79-1.235 1.378-.28.588-.419 1.268-.419 2.04 0 .77.14 1.45.42 2.041.279.588.69 1.047 1.234 1.378.544.33 1.212.496 2.002.496zm6.791-.157h.81v-6.78h2.774v-.736h-6.358v.736h2.774v6.78zm5.809 0h.881l3.695-7.516h-.866l-2.393 4.912-2.349-4.912h-.899l2.823 5.736-.893 1.78zm5.53 0h.81v-6.78h4.461v6.78h.81V9.081H90.1v7.516zm7.625 0h.81v-3.392h4.389v3.392h.805V9.081h-.805v3.388h-4.389V9.08h-.81v7.516zm10.764.157c.794 0 1.463-.166 2.007-.496.544-.33.955-.79 1.235-1.378.279-.591.419-1.272.419-2.04 0-.773-.14-1.453-.419-2.041a3.167 3.167 0 00-1.235-1.378c-.544-.33-1.213-.496-2.007-.496-.791 0-1.458.165-2.002.496a3.16 3.16 0 00-1.235 1.378c-.279.588-.419 1.268-.419 2.04 0 .77.14 1.45.419 2.041a3.16 3.16 0 001.235 1.378c.544.33 1.211.496 2.002.496zm0-.736c-.622-.004-1.142-.14-1.561-.407a2.452 2.452 0 01-.932-1.117c-.206-.477-.307-1.028-.303-1.655.007-.626.114-1.178.32-1.654a2.46 2.46 0 01.926-1.122c.412-.272.928-.406 1.55-.402.621.003 1.139.139 1.555.407.415.268.726.64.931 1.117.21.476.315 1.028.315 1.654 0 .627-.105 1.18-.315 1.66a2.444 2.444 0 01-.931 1.117c-.416.268-.934.402-1.555.402zm6.973.579h3.319c.702 0 1.268-.188 1.698-.564.431-.379.646-.894.646-1.545 0-.434-.118-.814-.353-1.137a2.183 2.183 0 00-.965-.741 1.792 1.792 0 00.932-1.592c0-.355-.092-.679-.276-.971a1.961 1.961 0 00-.772-.705c-.331-.174-.719-.26-1.163-.26h-3.066v7.515zm.816-4.311v-2.48h2.244c.401 0 .73.112.987.335.261.223.391.511.391.866 0 .376-.134.684-.402.924a1.424 1.424 0 01-.976.355h-2.244zm0 3.575v-2.85h2.454c.297 0 .564.067.799.199.235.132.419.311.551.537.136.223.204.474.204.752 0 .428-.163.762-.49 1.002-.327.24-.732.36-1.213.36h-2.305z" fill="#fff"/><defs><linearGradient id="paint0_linear_7492_4787" x1="27.795" y1="11.105" x2="6.397" y2="32.502" gradientUnits="userSpaceOnUse"><stop stop-color="#00A0FF"/><stop offset=".007" stop-color="#00A1FF"/><stop offset=".26" stop-color="#00BEFF"/><stop offset=".512" stop-color="#00D2FF"/><stop offset=".76" stop-color="#00DFFF"/><stop offset="1" stop-color="#00E3FF"/></linearGradient><linearGradient id="paint1_linear_7492_4787" x1="43.139" y1="25.502" x2="12.288" y2="25.502" gradientUnits="userSpaceOnUse"><stop stop-color="#FFE000"/><stop offset=".409" stop-color="#FFBD00"/><stop offset=".775" stop-color="orange"/><stop offset="1" stop-color="#FF9C00"/></linearGradient><linearGradient id="paint2_linear_7492_4787" x1="31.654" y1="28.428" x2="2.638" y2="57.444" gradientUnits="userSpaceOnUse"><stop stop-color="#FF3A44"/><stop offset="1" stop-color="#C31162"/></linearGradient><linearGradient id="paint3_linear_7492_4787" x1="9.304" y1=".225" x2="22.261" y2="13.182" gradientUnits="userSpaceOnUse"><stop stop-color="#32A071"/><stop offset=".069" stop-color="#2DA771"/><stop offset=".476" stop-color="#15CF74"/><stop offset=".801" stop-color="#06E775"/><stop offset="1" stop-color="#00F076"/></linearGradient><clipPath id="clip0_7492_4787"><rect width="172.124" height="51" rx="4" fill="#fff"/></clipPath></defs></svg>