<svg width="100" height="36" fill="none" xmlns="http://www.w3.org/2000/svg"><g clip-path="url(#clip0_461_35952)"><path d="M51.559 11.787h3.281v17.337h-3.28V11.787zm12.04 9.257c-.522.935-1.207 1.64-2.057 2.115a5.52 5.52 0 01-2.74.714c-.993 0-1.855-.254-2.587-.764-.732-.51-1.296-1.232-1.69-2.167-.397-.936-.594-2.031-.594-3.29 0-1.274.197-2.374.594-3.302.394-.926.959-1.645 1.69-2.155.732-.51 1.594-.764 2.587-.764.976 0 1.89.239 2.74.714.85.475 1.535 1.177 2.057 2.103.523.925.784 2.06.784 3.404 0 1.326-.261 2.456-.784 3.392zm-3.028-5.176a2.888 2.888 0 00-1.148-1.123 3.295 3.295 0 00-1.577-.383 3.03 3.03 0 00-1.426.368 2.903 2.903 0 00-1.136 1.11c-.296.493-.441 1.095-.441 1.81 0 .714.148 1.316.44 1.809.294.492.674.863 1.137 1.11.463.246.938.37 1.426.37.572 0 1.1-.127 1.577-.383.48-.256.862-.63 1.148-1.122.286-.493.429-1.088.429-1.785 0-.694-.143-1.289-.429-1.781zm9.213 7.65h-3.206V11.789h3.206v11.729zm2.74-8.76c-.227-.11-.51-.166-.846-.166-.404 0-.749.112-1.034.33-.286.222-.5.533-.644.931-.142.398-.214.881-.214 1.441l-.91-.918c0-.936.178-1.762.53-2.486.353-.722.816-1.302 1.39-1.735.572-.433 1.16-.65 1.767-.65.421 0 .82.078 1.2.23.38.152.685.383.921.69l-1.488 2.804a2.955 2.955 0 00-.673-.47zm6.221 5.992c.167.247.399.433.694.56.294.127.619.192.971.192.505 0 .959-.104 1.363-.319a2.55 2.55 0 00.985-.918c.252-.398.38-.878.38-1.44l.404 1.53c0 .749-.207 1.376-.619 1.886a3.77 3.77 0 01-1.591 1.147 5.476 5.476 0 01-2.033.383 4.746 4.746 0 01-2.02-.433 3.644 3.644 0 01-1.503-1.261c-.38-.553-.567-1.227-.567-2.028 0-1.137.394-2.04 1.188-2.703.79-.662 1.909-.995 3.358-.995.741 0 1.392.077 1.956.229a6.14 6.14 0 011.427.56c.386.221.665.433.832.637v1.53a4.877 4.877 0 00-1.527-.764 6.164 6.164 0 00-1.78-.254c-.504 0-.916.065-1.236.192-.32.127-.557.306-.707.535-.15.229-.227.515-.227.854 0 .34.084.634.252.88zm-2.725-7.89c.606-.324 1.345-.633 2.22-.931.874-.299 1.85-.446 2.929-.446.993 0 1.877.145 2.651.433.774.29 1.38.71 1.818 1.262.439.552.656 1.227.656 2.028v8.312h-3.156v-7.625c0-.324-.05-.6-.15-.829a1.4 1.4 0 00-.469-.575 2.036 2.036 0 00-.744-.33 4.197 4.197 0 00-.958-.103c-.54 0-1.052.06-1.54.18a6.492 6.492 0 00-2.045.866L76.02 12.86zm14.768-1.073l2.853 7.065 2.85-7.065H100L93.64 24.74l-6.36-12.953h3.508z" fill="#2B313C"/><path d="M36.728 23.294v-2.116h3.852v-6.972h-3.57V12.09h6.861v9.088h3.511v2.116H36.728zm5.327-12.714c-1.256 0-1.956-.463-1.956-1.55 0-1.048.658-1.613 1.956-1.613 1.277 0 1.976.523 1.976 1.613 0 1.065-.7 1.55-1.976 1.55zM18.701 4.577c3.386-.316 6.596-.808 8.754 1.55 1.533 1.673.833 4.11.207 6.513-.084.326-.335.928-.416 1.262.152.547.305.689.384 1.249.146-.841.357-1.668.567-2.476.648-2.491 1.261-4.848-.527-6.799-2.39-2.61-5.618-2.307-9.035-1.988-.833.077-1.688.157-2.558.199.86.077 1.715.246 2.55.498l.074-.008zM2.676 12.909c-.441-3.33-.789-5.958 1.572-7.959 1.798-1.523 3.984-1.114 6.512-.64.283.053.569.108.857.158.744-.2 1.5-.329 2.264-.389-1.02-.082-2.02-.268-2.996-.45-2.587-.485-5.03-.943-7.078.791-2.651 2.245-1.74 6.012-1.306 9.273.086.646.14.592.207 1.261.103-.657-.22-1.286-.017-1.926a7.843 7.843 0 00-.015-.12zm24.934 6.104c-.089.58-.197.831-.362 1.398.069.324.345.732.416 1.05.596 2.68 1.133 5.495-.623 7.354-1.957 2.066-4.745 1.506-7.695 1.05-.411-.064-1.451-.36-1.872-.42-2.092.535-2.898.542-4.992 0-.128.015-.081-.015-.207 0-.136.015-1.222.209-1.355.224-3.319.398-6.527.963-8.628-1.486-1.481-1.724-.828-4.305-.207-6.721.093-.366.327-.889.416-1.26-.158-.55-.197-.689-.28-1.254-.141.886-.363 1.755-.582 2.608-.641 2.499-1.245 4.858.473 6.86 2.34 2.726 5.543 2.064 8.914 1.66 1.3-.156 2.358.006 3.742 0 1.444-.004 2.206-.335 3.536 0 1.663.421 4.046.867 5.467.7 1.281-.152 2.47-.632 3.516-1.737 2.013-2.125 1.434-4.728.82-7.485-.182-.831-.369-1.678-.497-2.541z" fill="#0E46A4"/><path d="M21.714 19.399l4.458 3.123c.394-.821.694-1.677.901-2.55-.175-.93-.303-1.885-.308-2.868-.005-.992.143-1.948.345-2.876a12.611 12.611 0 00-1.402-3.596l-4.326 3.193a7.355 7.355 0 01.332 5.574zm-9.607 4.299c-.037-.015-.074-.035-.11-.05L8.937 28.1a12.32 12.32 0 003.896 1.357 25.25 25.25 0 012.193-.117 18.15 18.15 0 011.998.112 12.375 12.375 0 003.75-1.285s-1.222-.196-2.471-2.087c-.789-1.195-.813-2.62-.722-2.33a7.159 7.159 0 01-5.475-.052zM14.83 9.743a7.12 7.12 0 012.102.287s.39-1.548 1.163-2.643c1.04-1.47 2.08-1.891 2.08-1.891-.792-.359-1.74-.635-2.576-.82-.87.076-1.759.135-2.673.138a15.94 15.94 0 01-2.402-.197 12.32 12.32 0 00-3.545 1.274l3.183 4.402a7.137 7.137 0 012.668-.55zM7.724 17.1a7.342 7.342 0 01.478-2.705l-4.435-3.106a12.672 12.672 0 00-.966 2.613c.133 1.063.242 2.158.247 3.3.002.915-.126 1.804-.306 2.672.21.911.385 1.578.794 2.432 0 0 .832-1.471 1.872-2.1 1.535-.931 2.67-.929 2.67-.929a7.416 7.416 0 01-.354-2.177z" fill="#0E46A4"/><path d="M2.804 13.901a12.865 12.865 0 00-.059 5.97c.18-.866.31-1.754.306-2.67-.005-1.145-.114-2.237-.247-3.3zm14.797-9.224c-1.67-.369-3.4-.386-5.073-.06.781.117 1.582.2 2.403.197a32.133 32.133 0 002.67-.137zm-4.764 24.78a12.46 12.46 0 004.19-.005 18.176 18.176 0 00-1.997-.112c-.747.005-1.479.052-2.193.117zm14.236-9.489c.446-1.886.458-3.855.037-5.743-.202.928-.35 1.883-.345 2.876.005.986.133 1.939.308 2.867zm-6.332-6.598zm-2.001-2.101a6.96 6.96 0 00-1.153-.635 6.766 6.766 0 00-.791-.279l.155.048a6.817 6.817 0 011.789.866zm.961.791zm3.284-5.159c.109.087.215.18.32.272-.105-.092-.214-.182-.32-.272zm-.495-.382c.111.082.22.164.328.25-.109-.084-.217-.168-.328-.25zm-2.104-1.262l-.133-.063-.003.005c.155.072.31.147.466.224a8.2 8.2 0 00-.33-.166zm3.51 2.461zM20.775 5.45zm4.056 3.293zm1.166 1.672l-.084-.136a14.35 14.35 0 00-.338-.528c.146.219.284.443.414.67l.008-.006zM25.2 9.216zm-4.758 3.704zm-1.696-2.067l-.095-.06c.033.023.065.04.095.06zm1.818-5.117l.076.04c-.024-.015-.052-.027-.076-.04zm.406 7.345c-.013-.02-.025-.037-.037-.058l.037.058zm-.32-.468c-.005-.008-.012-.013-.017-.02l.017.02zm-.3-.368c-.026-.03-.053-.058-.078-.088.028.028.053.058.077.088zm-1.962-1.603c-.015-.007-.03-.017-.044-.025.015.008.03.015.044.025zm4.238-3.582l.145.118-.145-.117zm1.665 1.59zm-.638-.681zM22.162 6.71c.037.027.072.055.108.08a1.76 1.76 0 01-.108-.08zM3.481 11.085a12.893 12.893 0 00-.79 1.938c.017.135.034.27.054.406.221-.769.512-1.52.88-2.245l-.144-.099zm24.045 7.269c.023.221.052.44.084.659.197-1.279.205-2.583.022-3.865a13.4 13.4 0 00-.093.633c.081.856.076 1.717-.013 2.573zM9.878 21.689l-.084-.095c.03.032.057.065.084.095zm-.244-.282l-.09-.112c.03.035.06.075.09.112zm9.106-10.138l.077.055c-.025-.018-.05-.038-.077-.055zm-8.338.545l.104-.092c-.035.03-.07.06-.104.092zm-.383.366zm-.229.248zm11.091 15.886a12.526 12.526 0 01-3.262 1.207c.158.02.316.04.473.063.996-.254 1.969-.63 2.893-1.128l-.104-.142zm5.435-5.693l.143.1a12.8 12.8 0 00.767-1.986l-.074-.361a12.566 12.566 0 01-.836 2.247zM24.306 8.14c.03.033.06.063.086.096l-.086-.095zm.461.526c.022.025.042.053.062.078a.936.936 0 00-.062-.078zm.786 1.048a.387.387 0 00.024.037c-.007-.012-.014-.025-.024-.037zM10.87 22.586c-.051-.037-.1-.077-.152-.114.052.037.1.074.152.114zm-.25-.196a8.148 8.148 0 01-.166-.14c.054.047.108.095.165.14zm-1.45-1.623l-.044-.07c.012.023.03.045.045.07zm11.443.085a5.733 5.733 0 01-.116.171c.04-.057.076-.114.116-.171zM3.526 22.634a12.887 12.887 0 01-.867-2.357c-.025.115-.052.232-.079.346.207.722.473 1.431.806 2.115l.14-.104zm16.658-1.205c-.042.05-.082.1-.123.147.044-.048.083-.1.123-.147zm.234-8.54l.025.035c-.008-.013-.015-.025-.025-.035zM8.877 5.747a12.55 12.55 0 013.159-1.207c-.14-.025-.28-.047-.419-.072a12.73 12.73 0 00-2.84 1.137l.1.142zm12.367 13.91l-.055.132c.02-.045.037-.09.055-.132zm-.141.319l-.064.134.064-.134zm-12.718-.894a6.955 6.955 0 01-.31-1.988c-.01-.886.142-1.75.448-2.553l-.022.057-.146-.102a7.17 7.17 0 00-.123 4.664l.145-.108.008.03zm10.951-7.355c.03.027.062.052.092.08-.03-.028-.06-.053-.092-.08zm.708.697l.067.078a2.054 2.054 0 00-.067-.078zm-1.006-.942l.104.08a1.921 1.921 0 01-.104-.08zM17.58 23.385a6.812 6.812 0 001.978-1.286 6.807 6.807 0 01-7.546 1.172l.187.087-.099.144a6.988 6.988 0 005.384.11l-.104-.142.2-.085zm2.242-1.545zM8.838 28.248l-.099.144a12.426 12.426 0 002.964 1.185c.168-.02.338-.037.508-.057a12.535 12.535 0 01-3.373-1.272z" fill="#0E46A4"/><path d="M12.327 10.606a6.8 6.8 0 014.47-.249l-.072-.022.103-.152a6.987 6.987 0 00-4.555.257l.103.144-.05.022zm8.683 3.241l-.018-.028a7.02 7.02 0 01.328 5.647l.022-.058.079-.211.148.102a7.178 7.178 0 00-.325-5.373l-.14.105-.095-.184zM6.456 26.78l-.121-.107c.042.035.081.072.12.107zm-1.74-1.88c-.032-.041-.067-.084-.099-.128.032.044.064.087.099.129zM4.408 9.54l.079-.115a3.752 3.752 0 00-.079.114zm-.338.505c.025-.04.05-.077.077-.117-.025.04-.052.077-.077.117zm1.452 15.819c-.045-.047-.087-.097-.128-.144.041.05.083.097.128.144zm-.407-.464zm20.739-14.878a12.808 12.808 0 011.35 3.302l.081-.34a12.961 12.961 0 00-1.291-3.064l-.14.102zM20.25 5.197a12.666 12.666 0 00-1.621-.612l-.47.045c.68.179 1.345.415 1.992.711l.099-.144zM2.302 15.758a26.66 26.66 0 00-.07-.786 13.201 13.201 0 00-.017 3.976c.035-.219.064-.435.089-.657a12.99 12.99 0 01-.002-2.533zm5.344-9.451c.036-.025.073-.053.113-.078-.037.025-.077.05-.113.078zm14.196-.237l.09.06a1.411 1.411 0 00-.09-.06zM5.21 8.501l.11-.124c-.038.042-.072.085-.11.124zM6.615 7.1l.094-.08a17.13 17.13 0 01-.094.08zm16.797 19.655c-.054.05-.114.097-.168.144l.168-.144zM11.416 22.95l-.168-.102c.054.035.11.067.168.102zm12.611 3.218c.03-.033.062-.06.094-.092l.017-.02c-.005.007-.012.012-.017.02l-.094.092zm1.001-1.141c-.037.045-.071.092-.108.137.034-.045.071-.09.108-.137zm-1.257 1.393a7.59 7.59 0 01-.155.145c.052-.047.106-.094.155-.144zm-17.848-.14l.02.022a.161.161 0 01-.02-.023zm15.924 1.666l-.133.085c.044-.03.089-.057.133-.085zm-13.999-.094l-.09-.06c.033.02.06.04.09.06zm.525.328c-.023-.012-.045-.027-.067-.04a.515.515 0 00.067.04zm-.964-.637l-.126-.092c.04.032.084.062.126.092zm14.014.665c-.034.022-.071.042-.106.062l.106-.062zm1.229-.829c-.054.042-.11.082-.165.122.057-.04.111-.08.165-.122zm.385-.304zm-.781.595c-.049.035-.1.07-.152.104.051-.034.1-.07.152-.104zm1.05-20.497zm-.489-.403l.166.131a4.256 4.256 0 00-.166-.131zM16.08 4.087a12.739 12.739 0 00-2.201-.008c.347.027.697.042 1.047.042a25.88 25.88 0 001.153-.034z" fill="#0E46A4"/><path d="M27.203 13.825c.163.644.274 1.299.335 1.958.027-.211.06-.423.094-.632a12.898 12.898 0 00-.35-1.665c-.027.11-.052.224-.079.339zM12.033 4.54a12.63 12.63 0 016.125.087c.158-.015.316-.03.47-.042-.834-.254-1.69-.42-2.55-.498-.381.02-.765.032-1.152.032-.353.003-.7-.014-1.047-.042a12.98 12.98 0 00-2.265.388c.14.028.279.053.42.075zm15.121 15.837l.074.36c.168-.567.296-1.142.385-1.724a14.69 14.69 0 01-.084-.66 13.468 13.468 0 01-.375 2.024zm-24.495-.103a12.67 12.67 0 01-.353-1.983 14.78 14.78 0 01-.088.657c.084.565.207 1.122.362 1.672l.079-.346zm.086-6.845a30.214 30.214 0 00-.054-.406 13.28 13.28 0 00-.459 1.946c.028.262.05.523.07.787.076-.784.224-1.563.443-2.327zM12.21 29.52c-.17.017-.34.037-.507.057a12.83 12.83 0 006.389.007 30.62 30.62 0 00-.473-.062c-1.781.39-3.627.388-5.408-.002zm4.619-19.337l.105-.154a7.149 7.149 0 00-2.101-.286 7.153 7.153 0 00-2.666.55l.106.147a6.986 6.986 0 014.556-.257z" fill="#0E46A4"/><path d="M3.669 22.526a12.606 12.606 0 01-.924-2.655c-.027.135-.057.269-.089.403.21.806.5 1.598.868 2.357l.145-.105zm22.501-.006l.146.102c.35-.727.631-1.479.835-2.245l-.08-.408a12.46 12.46 0 01-.9 2.55zm-.46-11.893a12.688 12.688 0 011.402 3.595c.03-.134.059-.266.091-.4a12.816 12.816 0 00-1.35-3.302l-.143.107zM8.353 14.5l-.148-.105a7.293 7.293 0 00-.478 2.704c.01.75.13 1.481.355 2.173l.15-.11a7.17 7.17 0 01.121-4.663zM2.3 15.758a12.99 12.99 0 00.003 2.533c.037-.36.06-.724.06-1.087-.003-.49-.025-.97-.062-1.446zm25.226 2.596a12.99 12.99 0 00.012-2.57c-.054.432-.088.873-.086 1.316.003.42.03.838.074 1.254zm-15.428 5.148l-.099.144a7.17 7.17 0 005.585.107l-.103-.142a6.966 6.966 0 01-5.383-.109zM8.98 5.891a12.47 12.47 0 013.546-1.274c-.165-.025-.33-.05-.492-.077a12.585 12.585 0 00-3.159 1.207l.106.144zm-5.21 5.395l-.145-.102a12.8 12.8 0 00-.88 2.244l.06.47c.223-.895.541-1.771.965-2.612zm17.796 8.011l.146.102a7.363 7.363 0 00-.33-5.577l-.14.105a7.158 7.158 0 01.324 5.37zM20.05 5.488l.102-.15a12.454 12.454 0 00-1.994-.711c-.184.017-.372.032-.556.05.835.184 1.658.453 2.449.811zm-3.023 23.965c.197.02.397.044.592.07a12.564 12.564 0 003.262-1.208l-.106-.144a12.401 12.401 0 01-3.748 1.282zM8.939 28.1l-.101.147a12.516 12.516 0 003.37 1.272c.207-.022.417-.042.626-.062A12.32 12.32 0 018.94 28.1z" fill="#0E46A4"/><path d="M27.073 19.968c.025.137.052.274.082.408.18-.667.303-1.343.372-2.023a12.472 12.472 0 01-.074-1.254c-.003-.443.032-.88.086-1.316a12.91 12.91 0 00-.335-1.959 23.09 23.09 0 00-.091.4 12.877 12.877 0 01-.04 5.744zM2.804 13.902l-.06-.47a13 13 0 00-.44 2.326c.034.476.059.956.061 1.446.003.366-.02.73-.059 1.088.067.667.183 1.331.353 1.983.03-.134.059-.269.086-.403a12.832 12.832 0 01.059-5.97zm10.033 15.555c-.21.02-.42.04-.626.062 1.781.391 3.63.394 5.408.003a47.386 47.386 0 00-.591-.07 12.471 12.471 0 01-4.191.005zm4.765-24.78c.187-.015.372-.033.556-.05a12.6 12.6 0 00-6.125-.087c.163.027.328.052.493.077a12.544 12.544 0 015.076.06zM8.634 27.931c-.143-.087-.288-.174-.429-.266.14.092.283.182.429.266zm1-5.991a6.8 6.8 0 00.261.27 8.277 8.277 0 01-.261-.27zm-.912-1.24c.049.082.098.164.15.247a4.109 4.109 0 01-.15-.247zm-.604 6.911zm-.498-.344zm2.714-4.659zm-.439-.398zm-.507-.555c.049.06.103.12.155.18-.052-.06-.104-.117-.155-.18zm-5.184 1.867zm7.443-.042zm-2.491-2.12zm-2.048 5.514zm-2.195-2.287zm-1.089-1.742c.027.055.06.107.086.16-.03-.056-.054-.11-.08-.165l-.006.005zm5.11-1.804a5.1 5.1 0 00.138.2c-.047-.066-.094-.13-.138-.2zm-2.331 5.4zm1.599-6.826zM5.66 25.498a8.599 8.599 0 01-.28-.321c.092.107.186.214.28.32zm4.455-13.896c-.035.03-.07.06-.101.093.032-.03.066-.06.1-.093zm-6.185-.629l.005.002c.037-.07.074-.142.113-.211-.04.07-.081.139-.118.209zm.852-1.359zm3.561 4.449zm.332-8l-.222.134c.074-.045.15-.087.224-.13l-.002-.005zM6.48 7.688zm2.462 5.275zm-3.799-3.83zm3.981 3.569c-.044.06-.086.122-.128.182l.128-.182zm.2-.259zM5.968 8.188zM7.451 6.88zm2.951 4.474c-.047.037-.093.077-.14.117.046-.04.093-.078.14-.117zM7.91 6.548zm3.931 3.892zm-7.756.257zM5.581 8.61zm-1.168 1.546c.094-.144.19-.288.288-.427-.098.141-.197.283-.288.428zm20.605-.594zm-3.802 3.931zm-.283-.47zm-.301-.431zm2.137-5.414c.108.087.214.179.32.271a8.43 8.43 0 00-.32-.271zm-.499-.388zm-1.103-.725zm-3.891 4.079c.37.13.725.286 1.065.473a7.37 7.37 0 00-1.062-.475l-.003.002zm1.375.652a9.092 9.092 0 00-.263-.154c.088.05.177.1.263.154zm1.721-5.158l-.003.005c.064.032.13.062.195.094-.064-.032-.128-.067-.192-.1zm-.812 5.82a10.068 10.068 0 00-.184-.154c.064.05.123.102.185.154zm1.08-5.682c.152.08.303.162.453.247-.15-.085-.3-.17-.453-.247zm4.893 4.547c-.042-.067-.088-.132-.133-.199.045.067.087.134.129.204l.004-.005zm-2.308-2.758z" fill="#0E46A4"/><path d="M20.312 5.416l.185.092.241.12c.111.057.222.119.333.181a14.814 14.814 0 01.645.386c.067.042.13.087.195.13.098.066.197.131.296.2l.197.145c.096.072.192.144.288.22a15.463 15.463 0 01.488.405c.05.042.1.087.15.13a11.532 11.532 0 01.85.838c.027.03.057.06.084.092.128.14.251.281.372.425l.06.073a12.666 12.666 0 01.696.933l.07.102c.1.154.201.308.297.467.003.003.005.008.008.01.03.05.056.102.086.152l.14-.102a12.49 12.49 0 00-.413-.67c-.008-.012-.018-.024-.025-.036-.113-.17-.232-.336-.352-.5-.01-.016-.023-.028-.032-.043a9.243 9.243 0 00-.34-.43l-.062-.078c-.12-.144-.246-.288-.374-.428-.03-.032-.06-.062-.087-.094a13.327 13.327 0 00-.409-.426c-.145-.144-.295-.28-.446-.418a17.015 17.015 0 00-.63-.53c-.109-.084-.217-.169-.328-.251-.052-.037-.104-.077-.155-.115a10.466 10.466 0 00-.49-.333 13.52 13.52 0 00-1.068-.62l-.059-.03a13.482 13.482 0 00-.465-.224l-.099.145a.83.83 0 00.153.082zm-3.516 4.939a6.603 6.603 0 011.944.913c.025.018.052.035.076.055.074.053.148.105.22.162.034.027.069.052.103.08.067.052.133.107.197.162.03.024.062.052.091.077a6.63 6.63 0 01.614.617l.067.077a6.384 6.384 0 01.332.423c.099.137.192.276.281.418.007.01.012.02.02.03a8.54 8.54 0 01.268.478l.094.181.14-.104c-.024-.053-.054-.107-.081-.16-.042-.082-.086-.161-.13-.243-.003-.003-.003-.005-.003-.008a7.244 7.244 0 00-.46-.719 4.535 4.535 0 00-.11-.142c-.031-.042-.063-.082-.095-.122a4.808 4.808 0 00-.096-.117l-.133-.152-.08-.09a6.87 6.87 0 00-.228-.236l-.003-.002a7.308 7.308 0 00-.293-.271c-.03-.028-.062-.053-.091-.077a5.033 5.033 0 00-.22-.18l-.1-.077a13.243 13.243 0 00-.23-.166l-.088-.06a9.941 9.941 0 00-.276-.177l-.05-.03a6.958 6.958 0 00-1.473-.657c-.06-.017-.116-.037-.175-.054l-.103.151.071.02zm4.275-4.543z" fill="#0E46A4"/><path d="M25.393 9.788zm-5.081-4.37c-.054-.025-.106-.052-.157-.077l-.101.15c.054.024.106.051.157.076l.101-.149zm4.704 3.84zm-4.517-3.75l.242.122c-.082-.043-.163-.082-.242-.122zm5.125 4.967c.03.05.057.102.086.154l.143-.105c-.03-.05-.056-.102-.086-.154l-.143.105zm-5.802 1.458l-.003-.002.003.002zm5.938-1.575a.034.034 0 00.008.01.011.011 0 01-.008-.01zm-5.399 2.172zm.801 1.235l.081.159.14-.105a4.605 4.605 0 00-.078-.159l-.143.105zm-2.042-2.439l.1.077c-.034-.025-.069-.05-.1-.077zm-2.117-1.087l.104-.152c-.057-.02-.116-.037-.173-.055l-.106.155c.06.014.116.032.175.052zm5.689-3.347c.062.047.124.097.183.146-.06-.05-.121-.097-.183-.146zm-4.218 4.001l.05.03-.05-.03zm5.709-2.628l.084.092c-.027-.032-.057-.062-.084-.092zm-3.618 4.529a.59.59 0 01.047.068c-.014-.02-.03-.046-.047-.068zm4.074-4.012l.06.073-.06-.073zm-3.609 4.734l.002.008c0-.006-.003-.008-.003-.008zm-1.592-1.934c.03.025.062.05.091.078-.03-.025-.062-.05-.091-.078zm1.177 1.282zm.416.656zm4.041-4.185zm-4.759-3.919c.061.032.123.062.184.092-.061-.03-.12-.062-.184-.092zm3.954 2.938zm1.195 1.536zm-5.196 2.521l.096.117a4.012 4.012 0 01-.096-.117zm-.738-.751zm1.812-5.697c.125.075.251.152.377.231-.126-.08-.252-.154-.377-.231zm1.534 1.075c.104.085.204.172.306.259a10.398 10.398 0 00-.306-.259zm-3.986 4.124l.229.167a3.02 3.02 0 00-.23-.167zm3.023-4.836l.296.202c-.099-.07-.197-.137-.296-.202zm-2.693 5.077c.074.058.145.12.22.18-.072-.06-.146-.122-.22-.18zm-.744-.51zm5.709-2.628z" fill="#0E46A4"/><path d="M20.372 5.637c.064.032.128.067.192.1.024.012.052.024.076.04.153.079.303.161.453.246.025.015.05.027.074.042.343.2.673.413.996.644.037.025.071.053.108.08.12.087.24.18.355.271l.145.117c.109.087.215.18.32.272.045.04.09.077.134.117.145.131.29.263.428.403.168.166.33.338.488.51a13.931 13.931 0 01.456.533c.06.072.116.146.175.22.084.11.168.22.246.33.062.084.121.169.18.256.07.1.136.201.202.303.045.067.091.132.133.2l-.002.002c.03.05.064.1.094.15l.142-.105-.007-.01a13.545 13.545 0 00-1.123-1.576 12.423 12.423 0 00-.372-.425l-.084-.092c-.133-.142-.266-.284-.407-.423a13.907 13.907 0 00-.443-.413c-.05-.045-.101-.087-.15-.132a28.24 28.24 0 00-.306-.259l-.183-.147a21.46 21.46 0 00-.288-.219c-.066-.047-.13-.097-.197-.144a9.12 9.12 0 00-.296-.202c-.064-.045-.13-.087-.194-.13a11.861 11.861 0 00-.646-.385 10.835 10.835 0 00-.574-.303l-.187-.09-.101.147.158.077.005-.005zm-1.898 5.256l.05.03a6.441 6.441 0 01.593.403c.035.025.067.05.101.077.074.057.148.12.22.18a7.53 7.53 0 01.384.348h.003c.078.077.155.156.229.236l.081.09.133.151.096.117.096.122.109.142.046.067a6.752 6.752 0 01.547.904l.14-.105-.088-.17a6.32 6.32 0 00-.246-.412l-.037-.058a6.745 6.745 0 00-.587-.776c-.024-.03-.051-.057-.076-.087a6.632 6.632 0 00-.606-.607l-.106-.09c-.062-.052-.12-.104-.185-.154l-.123-.095c-.06-.044-.12-.092-.182-.136l-.119-.083a4.923 4.923 0 00-.3-.196 9.092 9.092 0 00-.264-.155c-.015-.007-.03-.017-.044-.024a7.307 7.307 0 00-1.064-.473l.002-.003c-.057-.02-.116-.037-.172-.057l-.104.152c.51.164 1.005.383 1.473.662zm2.839 9.451c.027-.055.054-.11.078-.164-.027.054-.051.11-.078.164zm.229-.497a4.878 4.878 0 01-.08.184l.08-.184zm2.313 6a14.39 14.39 0 01-.392.385c.133-.127.266-.253.392-.385zm-4.218-3.35c.02-.018.04-.035.057-.053-.02.018-.04.035-.057.053zm-.441.356l.05-.038c-.015.013-.032.025-.05.038zm1.952-2.203l.073-.134c-.027.044-.049.09-.073.134zm4.871 2.19l-.003-.002c-.165.323-.345.64-.54.948.193-.309.375-.622.543-.946zm-5.253-1.592c.022-.03.04-.06.062-.09-.023.03-.043.06-.062.09zm-.217.288c.02-.025.04-.052.06-.08l-.06.08zm.414-.585l.066-.11c-.022.038-.041.075-.066.11zm3.296 4.457zm-3.175 2.594c.103-.06.207-.122.308-.185-.104.063-.207.12-.31.18l.002.005zm2.261-1.66zm-1.441 1.146zm-3.61-4.061l.017-.01a.136.136 0 01-.017.01zm4.622 3.296zm-14.531-7.64c.175.567.424 1.11.741 1.615a6.918 6.918 0 01-.672-1.418l-.07-.197zm-2.462 7.196zM4.617 24.77zm.777.952zm.943.95zM3.38 22.738l.067.132.15.286a13.54 13.54 0 01-.214-.423l-.002.005zm7.867.109a3.268 3.268 0 01-.118-.08l.118.08zM6.8 27.073zm1.799 1.244l.138.08.002-.003a7.745 7.745 0 01-.367-.211c.076.044.15.09.227.134zm2.121-5.847l-.1-.08c.031.027.066.054.1.08zm-2.958 5.322zm3.872-4.716zm.276.145a2.61 2.61 0 01-.14-.07c.046.023.093.048.14.07zm-.928-.555l-.11-.082c.036.03.073.057.11.082zm-1.656-1.67zm2.324 2.356s-1.134.981-1.873 2.1a6.633 6.633 0 00-.99 2.566c.05.03.103.055.152.085l3.057-4.452c-.054-.027-.293-.274-.347-.299zm-.46-.128c.003.002.006.002.008.005-.002 0-.005-.003-.008-.005zM6.167 26.03c.007.008.012.015.02.02-.008-.007-.015-.012-.02-.02zm-.786-.854l-.11-.134c.034.045.073.09.11.134zm-.413-.516l-.055-.07c.017.022.037.045.055.07zm1.727 1.867a2.89 2.89 0 01-.094-.086l.094.086zm.961.766c-.013-.008-.025-.018-.035-.025.012.007.022.017.035.025zM5.777 25.63a6.268 6.268 0 01-.118-.132c.04.042.079.087.118.132zm1.428 1.322l-.1-.078c.035.025.067.05.1.078zm2.086-5.416l.096.122a5.197 5.197 0 00-.096-.122zm.974 1.013l.07.06a1.804 1.804 0 00-.07-.06zM8.69 20.645c.01.02.023.038.033.056-.013-.018-.023-.038-.033-.056zm-.485 7.02c-.03-.017-.057-.037-.087-.055.027.018.057.038.087.055zM4.243 23.59l-.04-.066.04.066z" fill="#0E46A4"/><path d="M12.196 23.357l-.187-.087a1.127 1.127 0 01-.098-.05 3.736 3.736 0 01-.141-.07c-.047-.024-.091-.049-.138-.074a3.896 3.896 0 01-.22-.127l-.167-.102a1.925 1.925 0 01-.116-.08 3.22 3.22 0 01-.258-.184c-.052-.037-.101-.077-.15-.114l-.102-.08a7.827 7.827 0 01-.165-.14 6.67 6.67 0 01-.576-.562c-.03-.032-.057-.064-.084-.094a10.797 10.797 0 01-.16-.187l-.089-.112c-.05-.062-.096-.127-.143-.189-.027-.035-.051-.072-.076-.107a5.466 5.466 0 01-.155-.231l-.045-.07a6.986 6.986 0 01-.741-1.615l-.01-.027-.146.107c.018.057.037.117.06.174.128.378.29.746.485 1.102l.005.008c.06.107.12.214.187.318l.045.07c.054.085.108.167.165.249l.066.092c.054.075.109.147.165.221l.077.1c.059.072.12.144.182.216l.074.087a7.525 7.525 0 00.517.516l.096.082.153.13c.042.031.081.066.123.099.042.032.084.064.126.094l.148.11c.03.022.061.042.09.062.301.207.617.386.94.54l.16.075.103-.15zm-3.511 4.806a.171.171 0 01-.027-.017c-.05-.027-.096-.057-.146-.085a9.83 9.83 0 01-.344-.211l-.14-.09a10.133 10.133 0 01-.43-.294c-.044-.03-.086-.062-.128-.094-.125-.092-.251-.19-.374-.286l-.08-.06a11.67 11.67 0 01-.425-.36l-.104-.093c-.143-.13-.286-.261-.424-.398v-.003a13.768 13.768 0 01-.418-.433c-.045-.047-.087-.097-.129-.144-.09-.102-.18-.204-.268-.306l-.14-.172c-.082-.1-.16-.199-.237-.3l-.133-.177a28.27 28.27 0 01-.24-.336c-.034-.05-.068-.097-.1-.147-.106-.16-.207-.319-.306-.48-.032-.053-.061-.107-.09-.16a9.95 9.95 0 01-.195-.343l-.111-.21c-.03-.056-.062-.114-.091-.173l.002-.003a2.978 2.978 0 01-.079-.16l-.14.105c.069.142.138.284.212.424l.027.05c.29.54.62 1.062.993 1.564l.098.13c.089.117.18.231.271.346l.128.154c.091.107.183.214.279.319l.128.144c.13.14.263.279.401.415l.02.023.015.015c.123.122.251.239.38.356.039.037.08.072.12.107.113.1.227.199.343.293l.071.06c.136.11.274.217.412.319.041.032.083.062.125.092.116.084.234.166.352.248l.09.06c.15.1.302.197.455.289l.067.04c.12.072.243.142.367.211l.098-.144a4.943 4.943 0 01-.155-.085zm2.07-5.444z" fill="#0E46A4"/><path d="M11.935 23.428l-.098.146c.054.025.106.05.16.073l.099-.145c-.055-.022-.106-.05-.16-.074zm-.938-.538l-.092-.062.092.063zm-5.749 2.399c-.046-.057-.096-.115-.143-.172.047.057.094.115.143.172zm1.849 1.799l-.08-.06.08.06zm-.503-.423l-.104-.092c.032.033.067.063.104.092zm2.193 1.352l-.101.146c.051.03.103.055.152.085l.101-.147c-.051-.027-.103-.054-.152-.084zm-.557-8.855l-.15.11.058.174.148-.11a4.782 4.782 0 01-.057-.174zm-4.48 3.522c-.027-.053-.054-.105-.078-.16l-.146.107c.025.053.055.105.08.16l.145-.107zm6.756-.16a3.794 3.794 0 01-.152-.13c.051.045.103.088.152.13zm-2.338 5.328l-.14-.09.14.09zm1.072-6.673c-.023-.03-.045-.063-.067-.093l.067.093zm.503.619l-.077-.088c.025.03.05.06.077.088zm-.966-1.352c-.003-.002-.003-.005-.006-.008.003.003.006.006.006.008zm.707 1.051a2.643 2.643 0 01-.077-.098c.025.03.05.066.077.098zM7.6 27.469a4.204 4.204 0 01-.127-.095l.128.095zm-.127-.095c-.126-.092-.251-.19-.374-.286.123.097.246.194.374.286zm-3.87-4.581l.09.174-.088-.177-.002.003zm1.912 2.804c-.092-.102-.18-.204-.269-.306l.269.306zm2.998 2.466zM7.02 27.028a11.67 11.67 0 01-.426-.361c.14.122.28.244.426.36zm-2.625-2.869a12.112 12.112 0 01-.305-.48c.098.162.202.32.305.48zm.711.958zm3.579 3.046c-.01-.008-.017-.01-.027-.018a.18.18 0 00.027.018zm-2.622-1.989zm.427.399zm-1.754-1.931c-.081-.11-.16-.224-.239-.336.079.112.158.224.24.336zm3.55-5.306zm2.619 3.489l-.148-.107c.047.037.096.072.148.107zm1.03.603zm-1.581-1.033l-.094-.082.094.082zm-.95-.998zm-.231-.314zm.493.627c-.062-.072-.123-.141-.183-.216.06.075.121.147.183.217z" fill="#0E46A4"/><path d="M8.633 27.932a9.47 9.47 0 01-.429-.267c-.03-.017-.056-.037-.086-.057-.155-.102-.31-.206-.463-.316a12.835 12.835 0 01-.448-.341l-.099-.077a9.236 9.236 0 01-.505-.433 11.728 11.728 0 01-.404-.378l-.012-.013-.02-.02a14.803 14.803 0 01-.387-.4l-.118-.132a8.608 8.608 0 01-.39-.455 14.524 14.524 0 01-.303-.384l-.054-.07a12.829 12.829 0 01-.67-1c-.012-.022-.027-.044-.04-.064a13.032 13.032 0 01-.379-.675l.005-.002a3.167 3.167 0 01-.079-.16l-.143.108.09.176c.036.07.07.14.11.21.064.114.128.228.195.343.03.052.059.107.09.159.1.162.2.32.306.48.032.05.07.097.104.147.079.112.155.224.236.336l.133.177c.077.102.156.201.237.3.047.058.093.115.143.172.086.105.177.207.268.309.045.047.087.097.128.144.136.147.274.292.42.433l.002.003c.138.137.28.269.424.398l.103.092c.14.124.283.244.426.36.025.02.052.04.08.06.122.098.248.195.374.287l.128.094c.14.102.283.2.428.294l.14.09c.114.072.23.144.346.211.05.027.096.057.145.085l.027.015.101-.147c-.059-.035-.108-.065-.16-.092zm-.43-8.317c.135.358.298.701.485 1.03l.032.055.15.246c.02.032.04.065.062.095a9.8 9.8 0 00.222.318c.044.06.09.12.138.177l.096.122c.049.06.103.12.155.179l.091.104a6.8 6.8 0 00.63.61l.07.06a7.778 7.778 0 00.857.617l.008.005a7.11 7.11 0 00.638.346l.1-.147a6.958 6.958 0 01-.938-.54l-.091-.062a3.773 3.773 0 01-.148-.11 4.007 4.007 0 01-.249-.194 6.776 6.776 0 01-.152-.13 6.673 6.673 0 01-.333-.306l-.005-.004a4.96 4.96 0 01-.347-.376c-.062-.072-.124-.142-.183-.217a4.671 4.671 0 01-.241-.319l-.067-.091c-.056-.082-.113-.164-.165-.249l-.044-.07a8.249 8.249 0 01-.192-.326 7.156 7.156 0 01-.486-1.102l-.148.11c.01.057.032.114.055.169zm1.448-7.022l.138-.164c-.046.052-.09.11-.138.164zM5.719 7.941zm3.055-2.338l-.136.077a12.37 12.37 0 00.136-.077zM6.709 7.02zm.557-.44zm2.311 6.103a6.85 6.85 0 00-1.056 1.858l.059-.144a6.874 6.874 0 01.997-1.714zm2.75-2.077a6.794 6.794 0 00-1.821 1.115 6.787 6.787 0 011.67-1.047l.15-.068zm-8.776.342l-.072.137.003.002c.18-.353.377-.702.591-1.04-.187.291-.362.592-.522.9zM5.32 8.377zm6.682 1.985a4.54 4.54 0 01.162-.07l-3.183-4.4c-.052.027-.101.057-.153.087l3.174 4.384zm-3.731 3.865l-4.42-3.095c-.027.052-.057.104-.081.154l4.434 3.108c.02-.057.042-.112.067-.167zM7.904 6.55l.006-.002-.006.002zm3.116 4.35l-.036.023a.419.419 0 00.035-.023zm-7.085.075l-.083.154 4.42 3.096.069-.165-4.406-3.085z" fill="#0E46A4"/><path d="M11.842 10.438l.16-.075L8.829 5.98c-.052.027-.101.057-.153.087 0 0 1.042 2.155 1.515 2.792.626.84 1.65 1.58 1.65 1.58zM7.357 6.949c.03-.023.062-.048.095-.07a2.284 2.284 0 00-.095.07zm3.413 4.123l-.08.058c.028-.018.053-.038.08-.058zm-1.557 1.516c-.03.04-.06.077-.089.117l.089-.117zm.239-.298c-.044.051-.089.101-.13.153.044-.052.086-.104.13-.154zm.318-.356zm.243-.24zM6.901 7.315l.008-.005c-.005.002-.005.005-.008.005zM5.117 9.161l.023-.027a.1.1 0 01-.023.027zm-.416.568l.081-.115c-.03.038-.054.075-.08.115zm-.315.467c.007-.012.017-.025.025-.04a.213.213 0 01-.025.04zm4.134 4.345a6.85 6.85 0 011.057-1.859l.076-.089a7.18 7.18 0 01.609-.65c.047-.044.096-.087.145-.129l.104-.092a6.753 6.753 0 011.82-1.115l.05-.022-.104-.145c-.054.023-.11.045-.165.07a7.121 7.121 0 00-.879.466l-.017.01a5.393 5.393 0 00-.264.174l-.042.03a7.723 7.723 0 00-.232.169l-.074.06c-.063.052-.13.101-.192.156-.042.035-.08.072-.123.11-.047.04-.094.08-.138.122-.086.08-.17.164-.254.248-.083.085-.162.175-.241.262-.04.044-.076.092-.116.14a2.212 2.212 0 00-.108.128c-.052.065-.099.13-.148.197l-.06.08c-.056.08-.108.159-.162.239l-.03.042-.164.269-.013.017c-.056.097-.108.194-.16.291 0 0 0 .003-.002.003-.104.199-.195.4-.279.607l-.066.167.145.102.027-.058z" fill="#0E46A4"/><path d="M3.704 11.03c.047-.092.098-.181.148-.271a10.004 10.004 0 01.342-.582l.118-.184c.07-.107.14-.214.215-.319l.103-.15c.106-.149.215-.293.328-.437l.096-.12c.091-.114.187-.229.283-.34.037-.043.074-.088.114-.13.128-.144.256-.286.391-.426l.003-.002.002-.003a17.4 17.4 0 01.412-.405c.042-.04.084-.077.125-.117.109-.1.22-.2.33-.294.04-.032.077-.067.116-.1.14-.116.284-.23.427-.343.046-.037.096-.072.145-.107.103-.077.207-.152.31-.224l.178-.122c.118-.08.236-.156.355-.231.069-.045.14-.087.212-.13.088-.052.177-.106.266-.156v.002c.051-.03.1-.06.152-.087l-.1-.142a12.676 12.676 0 00-1.511.976l-.11.082a21.37 21.37 0 00-.45.358c-.031.028-.06.055-.093.08a24.17 24.17 0 00-.355.313l-.12.112a10.948 10.948 0 00-.82.849l-.11.124a19.78 19.78 0 00-.302.366c-.025.033-.052.062-.077.095-.118.152-.234.306-.345.46l-.079.115c-.088.13-.177.258-.26.388-.025.04-.052.077-.077.117-.214.34-.412.687-.591 1.04l.143.1c.032-.053.061-.103.086-.155z" fill="#0E46A4"/><path d="M4.526 9.674l.104-.15c-.035.048-.07.1-.104.15zm-.33.499c.04-.062.08-.121.119-.184a5.751 5.751 0 00-.119.184zm1.141-1.549c.037-.043.074-.088.113-.13l-.113.13zM8.42 14.33l-.148-.103-.067.167.148.105.066-.17zM5.847 8.062l-.003.002.003-.002zm.411-.407c.042-.04.084-.077.125-.117a3.4 3.4 0 01-.125.117zm2.599 5.777l.01-.018c-.002.005-.007.01-.01.018zm2.048-2.24l.042-.03-.042.03zM8.247 6.118c.07-.045.14-.087.212-.13l-.212.13zm.584-.139c.052-.028.101-.06.153-.088l-.106-.144c-.052.027-.101.06-.15.087l.103.145zm.392 6.882l.06-.08-.06.08zM10.6 11.42l.074-.06c-.025.018-.05.04-.074.06zM7.712 6.47c.06-.042.118-.082.177-.121l-.177.122zm4.561 3.97l-.107-.147c-.054.022-.108.047-.162.07l.106.146.163-.07zm-2.378 1.617zM6.714 7.245l.113-.1a2.171 2.171 0 01-.113.1zm3.57 4.44c.042-.038.082-.075.123-.11-.041.035-.08.075-.123.11zM7.256 6.804zm-3.55 4.226c-.027.053-.057.102-.084.155l.145.102a8.7 8.7 0 01.082-.155l-.143-.102zm7.521-.052zm-.28.181zm1.16-.649zm-3.24 2.901c.052-.09.106-.179.165-.268l-.165.268zm1.807-2.051a9.77 9.77 0 01.231-.169c-.076.055-.155.11-.231.17zm-.528.449c.045-.043.092-.083.138-.122l-.138.122zm-.865.975c.05-.064.096-.131.148-.196l-.148.197zm1.126-1.209c.064-.055.128-.105.192-.157l-.192.157zM8.419 14.33zm.278-.607zm-4.72-3.186zm-.274.493l.148-.271c-.05.087-.099.179-.148.271zm5.022-5.199c-.089.05-.177.105-.266.157l.266-.157zM5.054 8.967zm.396-.473zm-.82 1.03zM6.384 7.54zm.446-.392z" fill="#0E46A4"/><path d="M3.93 10.972c.037-.07.08-.14.118-.209l.04-.07c.096-.169.197-.335.3-.5.008-.012.018-.024.025-.04.094-.144.19-.288.288-.43.028-.037.055-.077.082-.114.108-.152.221-.304.337-.45l.022-.028c.111-.14.225-.276.343-.413l.096-.112a12.527 12.527 0 01.8-.829c.035-.032.067-.065.102-.095.138-.126.276-.25.419-.373.002-.002.005-.005.007-.005.148-.124.298-.244.45-.36.03-.023.062-.048.095-.07.15-.112.3-.222.455-.329.003 0 .003-.002.005-.002.168-.115.335-.222.508-.329l.037-.022c.074-.045.148-.092.222-.135l.002.005c.05-.03.101-.06.153-.087l-.104-.144a14.81 14.81 0 00-.48.284c-.12.074-.24.152-.355.231-.06.04-.118.082-.177.122-.106.072-.21.15-.31.224a10.741 10.741 0 00-.572.45c-.04.033-.077.068-.114.1-.11.097-.222.194-.33.294l-.126.117c-.14.132-.278.266-.414.405l-.002.003-.002.002c-.136.14-.264.281-.392.426-.037.042-.074.087-.114.13a18.763 18.763 0 00-.379.457c-.113.144-.222.291-.328.44l-.103.15a12.161 12.161 0 00-.552.866c-.042.072-.084.144-.123.219-.05.09-.099.181-.148.274l.145.101c.027-.052.057-.104.084-.154h-.01zm4.49 3.358c.083-.207.174-.409.278-.608v-.002c.051-.097.103-.194.16-.291.002-.008.007-.013.01-.02.051-.09.106-.18.165-.269l.03-.042c.051-.08.105-.16.162-.24l.06-.079c.048-.065.095-.132.147-.196.034-.045.071-.088.108-.13l.116-.14a7.998 7.998 0 01.495-.51c.045-.042.092-.082.138-.121.042-.038.082-.075.124-.11.064-.054.128-.104.192-.156l.074-.06a7.9 7.9 0 01.231-.17l.042-.03c.086-.06.175-.116.264-.174l.017-.01c.094-.06.19-.114.286-.169h.002c.195-.11.392-.206.594-.296l-.106-.147a9.07 9.07 0 00-.16.075l.002.002a7.451 7.451 0 00-.823.463l-.034.023a4.154 4.154 0 00-.217.15l-.079.056-.177.132c-.037.03-.076.06-.113.092a6.771 6.771 0 00-.288.249c-.035.03-.07.06-.102.092a7.33 7.33 0 00-.476.49c-.029.033-.056.068-.085.102l-.131.155a7.256 7.256 0 00-.11.144l-.09.117c-.044.06-.086.122-.128.182-.017.024-.034.052-.054.077-.05.075-.096.15-.143.226l-.02.033c-.162.27-.31.552-.438.843l-.003-.002-.069.164.148.104zm14.068 13.171a8.3 8.3 0 01-.234.17 7.44 7.44 0 00.234-.17zm-2.425-5.925zm.629-.846zm.347-.62c-.027.058-.06.112-.089.17.032-.058.062-.112.089-.17zm-1.471 1.976l-.012.01c.005-.003.01-.005.012-.01zm4.955 3.551zm1.193-1.58zm-2.1 2.508l-.205.19c.07-.06.136-.125.205-.19zm-.374.336l-.205.175c.07-.058.138-.117.205-.175zm2.796-3.38zm.357-.658l.07-.137-.006-.002c-.115.238-.239.477-.37.711.107-.189.21-.378.306-.572zm-2.368 3.304c-.084.085-.167.172-.254.254.084-.082.17-.167.254-.254zm-3.043 2.292l.133-.075c.067-.037.133-.077.2-.114-.11.064-.222.126-.333.189zm1.119-.685c-.086.058-.17.117-.258.172.088-.057.175-.114.258-.172zm3.027-3.468l-.045.062.045-.062zm-4.303-3.148c.047-.067.094-.137.138-.204-.047.067-.091.134-.138.204zm3.043 4.673c.005-.005.01-.012.018-.017-.005.005-.01.012-.018.017zm-2.651-5.316l.093-.171-.093.171zm-.189.33c.039-.065.078-.127.115-.195-.037.065-.076.13-.116.195zm-.96 1.238zm-.825.733zm-.934.601zm4.169 3.656a2.934 2.934 0 01-.106.08l.106-.08zm-.492.356l-.087.06c.03-.02.06-.04.087-.06zm-.574.376c-.007.005-.015.007-.022.012a.08.08 0 00.022-.012z" fill="#0E46A4"/><path d="M21.342 19.406l-.022.057c-.025.065-.05.13-.077.194-.017.045-.037.087-.054.132a6.329 6.329 0 01-.15.324 3.485 3.485 0 01-.087.166c-.024.05-.051.1-.078.147-.027.048-.057.095-.084.142l-.096.162c-.025.042-.054.082-.081.122-.037.057-.077.114-.116.171a4.333 4.333 0 01-.082.11c-.041.057-.083.117-.128.172-.032.042-.069.082-.103.124a8.042 8.042 0 01-.365.41 5.897 5.897 0 01-.251.247c-.005.003-.008.008-.013.01a6.759 6.759 0 01-1.978 1.287l-.202.084.104.142c.056-.022.11-.042.167-.067a6.92 6.92 0 001.496-.869 4.968 4.968 0 00.276-.222l.103-.091.165-.147a6.781 6.781 0 00.512-.53l.057-.067a7.83 7.83 0 00.183-.222c.017-.022.034-.044.049-.067.059-.077.116-.154.17-.234l.037-.055c.056-.084.113-.169.167-.256.008-.012.015-.027.025-.04.057-.092.11-.186.165-.28.005-.008.007-.016.012-.023.055-.1.109-.202.158-.304.003-.002.003-.007.005-.01a7.773 7.773 0 00.28-.664c.023-.057.043-.115.062-.17l-.147-.102-.08.217zm4.9 3.377l-.007.012c-.025.05-.052.097-.077.147a9.752 9.752 0 01-.298.543 13.847 13.847 0 01-.613.958c-.02.027-.04.052-.057.08-.094.131-.192.26-.29.387l-.119.15c-.086.11-.177.216-.268.323l-.119.137c-.13.147-.26.291-.399.436-.135.141-.276.276-.416.41-.042.04-.087.08-.128.12-.106.097-.212.191-.32.283l-.131.112c-.143.12-.286.234-.434.349-.04.03-.079.057-.118.087-.111.082-.224.164-.338.244-.059.042-.12.082-.18.122-.1.07-.204.134-.308.201l-.167.107c-.138.085-.276.164-.416.244-.052.027-.104.057-.153.085l.103.142c.111-.06.224-.125.333-.187l.106-.062a17.193 17.193 0 00.421-.262c.086-.057.173-.114.256-.171l.153-.105c.079-.055.155-.112.232-.17.054-.039.11-.079.165-.121a10.6 10.6 0 00.214-.17c.057-.044.114-.089.17-.136.07-.057.136-.115.205-.174.056-.048.113-.095.167-.145.07-.062.138-.127.205-.189.051-.05.106-.097.155-.144a8.69 8.69 0 00.254-.254l.093-.092c.005-.007.013-.012.018-.02a12.173 12.173 0 00.78-.89c.037-.046.075-.09.109-.138a12.81 12.81 0 001.01-1.505l.052-.09c.13-.234.254-.473.37-.712l-.143-.099-.072.157z" fill="#0E46A4"/><path d="M26.095 22.68l.145.103c.027-.053.05-.107.077-.16l-.146-.102c-.027.053-.05.105-.076.16zm-1.582 2.7l-.119.138c.042-.045.08-.092.119-.137zm-3.819-4.339c-.012.017-.024.038-.037.055a.585.585 0 00.037-.055zm1.873 6.186l-.119.088c.037-.03.08-.058.119-.088zm-1.34-7.099c-.003.003-.003.008-.005.01l.005-.01zm.883 7.431c-.059.042-.12.082-.18.121l.18-.121zm1.466-1.195c-.041.04-.086.08-.128.12.045-.04.087-.08.128-.12zm-.447.403c-.045.037-.087.074-.131.112.044-.035.089-.075.13-.112zm-2.243-6.02c-.007.013-.015.028-.025.04a.912.912 0 00.025-.04zm-3.407 2.864l.103.142c.054-.022.11-.042.168-.067l-.104-.142c-.057.025-.11.045-.168.067zm3.584-3.168l-.012.023a.101.101 0 01.012-.023zm-.133 7.643l-.155.082.106.144c.052-.027.104-.057.153-.084l-.103-.142zm.575-8.62l.145.102c.022-.058.042-.115.062-.172l-.145-.102c-.018.06-.04.114-.062.172zm.115 8.416l-.17.107c.06-.035.114-.072.17-.107zm4.349-4.586a7.606 7.606 0 01-.109.189c.037-.062.072-.124.109-.19zm-6.803-.64l-.024.02a.168.168 0 00.024-.02zm6.081 1.784l-.06.08a.828.828 0 00.06-.08zm-5.726-2.078c-.034.03-.069.063-.103.092.037-.03.069-.062.103-.092zm.732-.744l-.057.068c.02-.023.04-.045.057-.068zm.968-1.48c-.05.102-.103.204-.157.303.054-.1.105-.201.157-.303zm-1.804 2.316zm1.445-1.667a7.524 7.524 0 01-.168.256c.06-.084.114-.171.168-.256zm-.662.899zm.85-1.22zm-.393.633c-.054.08-.113.156-.173.234.06-.08.119-.157.173-.234zm-.222.297c-.059.075-.12.147-.182.222.061-.072.123-.147.182-.221zm5.125 2.581zm-4.186-4.173zm2.621 6.149zm1.195-1.433z" fill="#0E46A4"/><path d="M26.159 22.942c-.062.12-.124.237-.19.354.064-.117.128-.234.19-.354zm-1.765 2.576zm-3.36 2.712zm.34-8.426c-.046.11-.096.219-.147.326-.003.002-.003.005-.006.01a6.672 6.672 0 01-.157.303l-.012.023a4.493 4.493 0 01-.166.281c-.007.012-.014.027-.024.04a7.524 7.524 0 01-.168.256l-.037.055c-.054.08-.113.157-.172.234l-.05.067a9.157 9.157 0 01-.18.221l-.056.068a5.31 5.31 0 01-.254.276c-.084.087-.17.172-.258.254-.055.05-.109.097-.166.146-.034.03-.069.063-.103.092-.084.07-.168.137-.251.202-.008.008-.018.013-.025.02-.468.356-.97.647-1.495.871l.103.142c.185-.08.367-.164.544-.261.005-.003.013-.005.018-.01.305-.165.6-.354.887-.568l.049-.037c.133-.102.264-.207.39-.319.019-.017.039-.034.056-.052a7.313 7.313 0 00.623-.63l.057-.067c.06-.07.118-.139.175-.211.02-.025.04-.053.059-.08.052-.07.106-.14.155-.209a9.151 9.151 0 00.2-.294c.022-.034.044-.072.066-.109.04-.065.08-.127.116-.194l.074-.134c.032-.058.064-.115.094-.172l.079-.164c.024-.05.049-.1.071-.152.027-.06.052-.122.079-.184a5.44 5.44 0 00.11-.28l-.145-.101a7.035 7.035 0 01-.133.34z" fill="#0E46A4"/></g><defs><clipPath id="clip0_461_35952"><path fill="#fff" d="M0 0h100v36H0z"/></clipPath></defs></svg>