<svg width="140" height="39" fill="none" xmlns="http://www.w3.org/2000/svg"><path d="M71.277 12.275h4.594v24.026h-4.594V12.275zM88.13 25.104c-.73 1.297-1.69 2.273-2.88 2.931a7.788 7.788 0 01-3.834.99c-1.39 0-2.597-.352-3.62-1.059-1.025-.707-1.815-1.707-2.367-3.003-.555-1.297-.83-2.814-.83-4.56 0-1.765.275-3.29.83-4.576.552-1.283 1.342-2.28 2.366-2.986 1.024-.707 2.231-1.059 3.621-1.059 1.366 0 2.645.331 3.835.99s2.148 1.631 2.88 2.914c.73 1.283 1.096 2.855 1.096 4.718 0 1.838-.365 3.403-1.097 4.7zm-4.238-7.173c-.4-.683-.938-1.2-1.607-1.555a4.648 4.648 0 00-2.207-.531c-.683 0-1.348.172-1.997.51-.648.341-1.18.855-1.59 1.538-.413.683-.617 1.517-.617 2.507 0 .99.207 1.824.618 2.507.41.683.941 1.197 1.59 1.538a4.24 4.24 0 001.996.514c.8 0 1.538-.176 2.207-.53a4.004 4.004 0 001.607-1.556c.4-.683.6-1.507.6-2.473 0-.962-.2-1.786-.6-2.469zm12.895 10.6h-4.486V12.278h4.486v16.253zm3.835-12.139c-.317-.151-.714-.23-1.183-.23-.565 0-1.048.155-1.448.458-.4.307-.7.738-.9 1.29-.2.552-.3 1.22-.3 1.997l-1.273-1.273c0-1.297.249-2.442.742-3.445.493-1 1.141-1.804 1.945-2.404.8-.6 1.624-.9 2.472-.9.59 0 1.149.107 1.68.318.531.21.958.53 1.29.955l-2.083 3.886a4.16 4.16 0 00-.942-.652zm8.709 8.305c.234.341.558.6.972.776.41.176.866.265 1.359.265.707 0 1.341-.145 1.907-.441a3.566 3.566 0 001.379-1.273c.352-.551.531-1.217.531-1.996l.566 2.12c0 1.039-.29 1.908-.866 2.615-.576.706-1.321 1.238-2.228 1.59a7.726 7.726 0 01-2.845.53c-1.013 0-1.955-.2-2.827-.6a5.085 5.085 0 01-2.104-1.748c-.531-.766-.793-1.7-.793-2.81 0-1.577.552-2.828 1.662-3.746 1.107-.917 2.673-1.38 4.7-1.38 1.038 0 1.949.108 2.739.318.789.21 1.455.473 1.996.776.542.307.931.6 1.166.883v2.12a6.854 6.854 0 00-2.138-1.058 8.71 8.71 0 00-2.49-.352c-.707 0-1.283.09-1.731.266-.449.176-.78.424-.99.741-.21.317-.317.714-.317 1.183 0 .473.117.88.352 1.22zm-3.815-10.935c.849-.449 1.883-.876 3.108-1.29 1.224-.414 2.589-.617 4.1-.617 1.39 0 2.628.2 3.711.6 1.082.4 1.931.982 2.545 1.748.613.766.917 1.7.917 2.81v11.519h-4.418V17.965c0-.448-.069-.83-.21-1.148a1.946 1.946 0 00-.655-.797 2.867 2.867 0 00-1.042-.458 5.93 5.93 0 00-1.341-.142c-.755 0-1.473.083-2.156.249a9.17 9.17 0 00-1.765.6c-.493.234-.859.434-1.097.6l-1.697-3.107zm20.67-1.487l3.994 9.79 3.99-9.79h4.91l-8.9 17.95-8.905-17.95h4.911zM50.522 28.221V25.29h5.39v-9.663h-4.997v-2.931h9.604V25.29h4.914v2.931H50.521zm7.455-17.618c-1.758 0-2.738-.642-2.738-2.149 0-1.452.92-2.235 2.738-2.235 1.787 0 2.766.725 2.766 2.235 0 1.476-.98 2.149-2.766 2.149zM25.289 2.285c4.738-.438 9.232-1.12 12.253 2.149 2.145 2.317 1.165 5.693.29 9.025-.118.451-.47 1.286-.584 1.748.214.759.428.955.538 1.731.204-1.165.5-2.31.794-3.431.907-3.452 1.765-6.718-.738-9.421C34.497.467 29.979.888 25.196 1.33c-1.166.107-2.362.217-3.58.276 1.204.107 2.4.341 3.57.69a5.23 5.23 0 00.103-.01zM2.86 13.83c-.617-4.613-1.103-8.255 2.2-11.028 2.518-2.11 5.577-1.545 9.115-.886.396.072.796.148 1.2.217a17.7 17.7 0 013.17-.538c-1.429-.114-2.829-.372-4.194-.624C10.73.299 7.309-.336 4.443 2.068c-3.71 3.11-2.435 8.331-1.828 12.849.121.897.197.82.29 1.748.145-.91-.307-1.782-.024-2.669a10.823 10.823 0 00-.02-.165zm34.899 8.46c-.124.804-.276 1.152-.507 1.938.096.448.483 1.014.583 1.455.834 3.715 1.586 7.615-.873 10.19-2.738 2.863-6.642 2.087-10.77 1.456-.576-.09-2.031-.5-2.62-.583-2.928.742-4.056.752-6.987 0-.18.021-.114-.02-.29 0-.19.021-1.71.29-1.897.31-4.645.553-9.135 1.335-12.077-2.058-2.072-2.39-1.158-5.966-.29-9.314.132-.508.46-1.232.583-1.745-.22-.763-.275-.956-.393-1.739-.196 1.228-.507 2.432-.814 3.614-.896 3.463-1.741 6.732.663 9.508 3.276 3.776 7.759 2.859 12.477 2.3 1.82-.217 3.3.007 5.238 0 2.02-.007 3.086-.465 4.948 0 2.328.583 5.663 1.2 7.653.97 1.793-.211 3.455-.877 4.92-2.408 2.818-2.945 2.008-6.552 1.15-10.373-.256-1.152-.518-2.324-.697-3.52z" fill="#fff"/><path d="M29.508 22.824l6.238 4.328a17.36 17.36 0 001.262-3.535c-.245-1.286-.424-2.61-.43-3.972-.008-1.376.2-2.7.482-3.987a17.378 17.378 0 00-1.962-4.983L29.042 15.1a10.1 10.1 0 01.465 7.724zm-13.448 5.96c-.05-.021-.103-.049-.154-.07l-4.28 6.17a17.333 17.333 0 005.452 1.88 35.69 35.69 0 013.07-.163c.951-.003 1.882.06 2.796.156 1.814-.307 3.587-.9 5.249-1.78 0 0-1.71-.272-3.46-2.893-1.103-1.656-1.137-3.632-1.01-3.228-2.455.98-5.22.959-7.662-.072zm3.811-19.34c1.01-.014 2 .124 2.942.396 0 0 .545-2.145 1.627-3.662 1.456-2.038 2.91-2.62 2.91-2.62-1.106-.497-2.434-.88-3.603-1.135a45.429 45.429 0 01-3.741.19c-1.149.003-2.266-.111-3.363-.273-1.717.33-3.39.917-4.962 1.766l4.455 6.1a10.075 10.075 0 013.735-.762zM9.926 19.638c-.017-1.304.217-2.57.67-3.749l-6.208-4.303a17.453 17.453 0 00-1.352 3.62c.186 1.473.338 2.99.345 4.573.003 1.27-.176 2.5-.428 3.704.293 1.262.538 2.187 1.11 3.37 0 0 1.166-2.039 2.621-2.911 2.149-1.29 3.739-1.287 3.739-1.287a10.185 10.185 0 01-.497-3.017z" fill="#fff"/><path d="M3.039 15.207a17.658 17.658 0 00-.083 8.273c.252-1.2.434-2.431.427-3.7-.006-1.587-.158-3.1-.344-4.573zM23.751 2.423a17.65 17.65 0 00-7.1-.083c1.093.162 2.213.276 3.362.272a45.422 45.422 0 003.738-.19zm-6.67 34.34c1.942.325 3.925.325 5.866-.007a25.669 25.669 0 00-2.797-.155 37.378 37.378 0 00-3.069.162zm19.926-13.149c.625-2.614.642-5.341.052-7.959-.283 1.286-.49 2.61-.483 3.987.007 1.365.187 2.686.431 3.972zm-8.862-9.146zm-2.801-2.91a9.757 9.757 0 00-1.614-.88 9.555 9.555 0 00-1.107-.386l.217.066c.9.283 1.738.683 2.504 1.2zm1.345 1.097zm4.596-7.149c.152.12.3.248.448.376-.148-.128-.3-.252-.448-.376zm-.692-.531c.155.113.307.227.458.348-.151-.117-.303-.235-.458-.348zm-2.945-1.749l-.186-.086-.004.007c.217.1.434.203.652.31-.152-.08-.307-.158-.462-.23zm4.915 3.411zm-4.37-3.142zm5.677 4.563zm1.63 2.317l-.117-.19c-.152-.248-.31-.489-.473-.73.204.303.397.613.58.927l.01-.007zm-1.113-1.662zm-6.66 5.135zm-2.374-2.866a2.723 2.723 0 01-.132-.083c.045.031.09.056.132.084zm2.542-7.09c.035.017.073.038.108.056-.035-.021-.073-.039-.108-.056zm.57 10.178c-.017-.028-.035-.053-.052-.08.017.024.035.052.052.08zm-.447-.648c-.008-.011-.018-.019-.026-.03a.18.18 0 00.026.03zm-.421-.512c-.035-.041-.073-.08-.108-.12.038.037.073.079.108.12zm-2.745-2.22c-.021-.011-.042-.025-.063-.035.02.01.042.02.063.034zm5.93-4.963l.204.162-.204-.162zm2.332 2.203c.145.166.29.331.428.5-.138-.169-.28-.334-.428-.5zm-.894-.945zM30.134 5.24c.052.038.1.076.151.11a2.446 2.446 0 01-.151-.11zM3.987 11.303a17.743 17.743 0 00-1.107 2.686c.024.186.048.373.076.562.31-1.065.717-2.107 1.23-3.11l-.2-.138zm33.655 10.073c.03.307.072.61.117.914.276-1.773.286-3.58.03-5.356-.05.29-.092.583-.13.876a17.86 17.86 0 01-.017 3.566zM12.94 25.998l-.118-.132c.042.045.08.09.118.132zm-.341-.391l-.124-.155c.041.048.082.104.124.155zm12.745-14.049l.107.076c-.034-.024-.07-.052-.107-.076zm-11.67.755c.048-.041.096-.086.145-.127a4.248 4.248 0 00-.145.127zm-.538.507zm-.321.345zM28.341 35.18a17.697 17.697 0 01-4.566 1.673c.221.028.442.055.663.086a17.937 17.937 0 004.048-1.562l-.145-.197zm7.607-7.89l.2.138c.438-.893.793-1.81 1.073-2.752-.035-.165-.07-.33-.104-.5a17.31 17.31 0 01-1.169 3.114zM33.135 7.223c.041.045.083.087.121.132l-.121-.132zm.645.727c.03.036.058.074.086.109a1.321 1.321 0 00-.087-.108zm1.1 1.453c.01.017.02.035.035.052a.395.395 0 00-.035-.052zm-20.551 17.84c-.072-.052-.141-.107-.214-.159.073.052.142.103.214.159zm-.351-.273zm-2.028-2.248l-.062-.098c.017.032.041.063.062.098zm16.016.116c-.052.08-.107.159-.162.238.055-.079.107-.158.162-.238zM4.049 27.307a17.752 17.752 0 01-1.214-3.265c-.035.158-.072.32-.11.479.29 1 .662 1.983 1.127 2.931l.197-.145zm23.317-1.668c-.059.069-.114.138-.173.203.062-.065.118-.138.173-.203zm.326-11.836l.035.049a.19.19 0 00-.035-.049zM11.539 3.906a17.672 17.672 0 014.42-1.673c-.196-.034-.392-.065-.585-.1-1.37.362-2.708.887-3.976 1.576l.14.197zm17.309 19.277c-.024.062-.051.12-.075.182.027-.062.051-.124.075-.182zm-.197.442c-.03.062-.058.124-.09.186a4.58 4.58 0 00.09-.186zM10.85 22.387a9.552 9.552 0 01-.435-2.756 9.555 9.555 0 01.628-3.538l-.031.08-.204-.142a9.845 9.845 0 00-.172 6.463l.203-.149.01.042zm15.33-10.194c.041.038.087.073.128.11-.041-.037-.083-.072-.128-.11zm.988.965c.031.035.062.073.094.108a3.052 3.052 0 00-.094-.108zm-1.406-1.303c.048.038.096.072.145.11a3.973 3.973 0 01-.145-.11zM23.72 28.35a9.547 9.547 0 002.769-1.784c-2.956 2.725-7.235 3.249-10.7 1.556.044.024.092.048.137.068l.262.121-.138.2a9.872 9.872 0 007.535.152l-.145-.197.28-.117zm3.138-2.142zm-15.373 8.88l-.138.2c.527.29 1.069.555 1.617.786.824.348 1.67.635 2.531.855.235-.027.473-.052.71-.08a17.65 17.65 0 01-4.72-1.761z" fill="#fff"/><path d="M16.368 10.641a9.602 9.602 0 016.256-.345l-.1-.03.144-.211a9.87 9.87 0 00-6.376.355l.145.2-.07.031zm12.152 4.49c-.007-.014-.017-.028-.024-.038a9.64 9.64 0 01.459 7.825l.03-.08.111-.293.207.142a9.857 9.857 0 00-.455-7.446l-.197.145-.13-.255zM8.15 33.053l-.17-.148c.06.048.114.1.17.148zM5.715 30.45c-.045-.06-.093-.118-.138-.18.045.062.09.12.138.18zM5.284 9.162c.038-.052.073-.104.11-.16l-.11.16zm-.474.699c.035-.055.07-.107.107-.162-.034.055-.072.107-.106.162zm2.033 21.923c-.062-.066-.12-.135-.179-.2.059.069.117.134.18.2zm-.57-.642a9.848 9.848 0 01-.18-.213c.06.072.118.144.18.213zM35.3 10.524a17.652 17.652 0 011.89 4.576l.113-.473a17.858 17.858 0 00-1.807-4.245l-.196.142zm-7.84-7.38a17.872 17.872 0 00-2.27-.849l-.659.062c.952.249 1.883.576 2.79.987l.138-.2zM2.335 17.779a36.544 36.544 0 00-.096-1.09 18.115 18.115 0 00-.024 5.511c.048-.303.09-.604.124-.91a17.823 17.823 0 01-.004-3.511zm7.48-13.098c.052-.034.104-.072.16-.107-.053.035-.108.07-.16.107zm19.871-.327l.125.083a1.969 1.969 0 00-.125-.083zM6.408 7.723l.152-.172c-.052.058-.1.117-.152.172zm1.966-1.941c.045-.038.087-.076.132-.11l-.132.11zm23.509 27.236c-.076.07-.159.135-.235.2.076-.065.156-.13.235-.2zm-16.791-5.272l-.235-.142c.076.049.156.093.235.142zm17.652 4.459c.041-.045.086-.083.131-.128.007-.007.017-.017.024-.028-.007.01-.017.017-.024.028-.045.045-.09.086-.13.128zm1.402-1.58c-.052.063-.1.128-.152.19.048-.062.1-.124.152-.19zm-1.76 1.931a11 11 0 01-.217.2c.072-.065.148-.13.217-.2zM7.405 32.36l.028.03a.224.224 0 01-.028-.03zm22.289 2.31c-.062.038-.124.08-.186.117.062-.041.124-.08.186-.117zM10.1 34.54l-.125-.084c.045.028.083.056.125.084zm.733.455c-.031-.018-.063-.039-.094-.056.031.02.063.038.094.056zm-1.35-.884c-.058-.04-.117-.086-.175-.127.055.045.117.086.175.127zm19.617.921c-.049.032-.1.06-.149.087l.148-.087zm1.72-1.148c-.075.059-.154.114-.23.17.08-.056.155-.111.23-.17zm.538-.421l-.238.19c.08-.066.159-.128.238-.19zm-1.092.825l-.214.144.214-.144zm1.468-28.406zm-.684-.559c.08.062.156.12.232.183a5.93 5.93 0 00-.231-.183zm-9.43-3.717a18.008 18.008 0 00-3.08-.01c.486.037.976.058 1.466.058.541-.004 1.08-.02 1.614-.048z" fill="#fff"/><path d="M37.19 15.1c.228.893.383 1.8.47 2.714.037-.294.082-.587.13-.876a17.726 17.726 0 00-.49-2.307c-.037.151-.072.31-.11.469zM15.957 2.233a17.85 17.85 0 018.573.12c.221-.02.442-.041.66-.058a17.883 17.883 0 00-3.57-.69c-.535.028-1.073.045-1.614.045-.493.003-.98-.02-1.466-.059a18.338 18.338 0 00-3.169.538c.197.038.39.073.586.104zM37.122 24.18l.103.5a17.86 17.86 0 00.538-2.39c-.044-.304-.086-.61-.117-.914a18.493 18.493 0 01-.524 2.803zm-34.287-.142a17.398 17.398 0 01-.493-2.748 21.83 21.83 0 01-.124.91c.117.783.29 1.556.507 2.318.038-.159.072-.317.11-.48zm.121-9.486c-.025-.186-.049-.376-.076-.562a18.25 18.25 0 00-.642 2.696c.038.363.07.725.097 1.09.107-1.086.314-2.165.62-3.224zm13.25 22.298c-.238.024-.476.051-.71.079a18.13 18.13 0 008.941.01 70.33 70.33 0 00-.662-.086 17.842 17.842 0 01-7.57-.003zm6.462-26.796l.149-.214a10.098 10.098 0 00-2.942-.396c-1.304.017-2.562.28-3.731.762l.148.203a9.87 9.87 0 016.376-.355z" fill="#fff"/><path d="M4.25 27.16a17.356 17.356 0 01-1.294-3.68c-.038.186-.08.372-.124.558.293 1.117.7 2.214 1.214 3.266l.203-.145zm31.495-.011l.204.141c.49-1.007.882-2.048 1.169-3.11l-.114-.566a17.147 17.147 0 01-1.259 3.535zM35.1 10.668a17.476 17.476 0 011.962 4.984c.041-.187.083-.37.127-.556a17.652 17.652 0 00-1.89-4.576l-.2.148zm-24.294 5.366l-.207-.145a10.017 10.017 0 00-.67 3.749c.014 1.038.183 2.052.497 3.01l.21-.151a9.844 9.844 0 01.17-6.463zm-8.47 1.746a17.823 17.823 0 00.003 3.51c.052-.5.083-1.004.083-1.507a27.29 27.29 0 00-.086-2.004zm35.306 3.596a17.82 17.82 0 00.017-3.563c-.076.6-.124 1.21-.12 1.825.003.583.04 1.162.103 1.738zm-21.595 7.135l-.138.2a10.129 10.129 0 007.818.148l-.145-.196a9.84 9.84 0 01-7.535-.152zM11.684 4.106a17.568 17.568 0 014.963-1.766 41.155 41.155 0 01-.69-.107c-1.524.355-3.014.91-4.42 1.673l.147.2zM4.39 11.582l-.203-.141a17.633 17.633 0 00-1.231 3.11l.083.652a17.331 17.331 0 011.352-3.62zm24.909 11.101l.203.142a10.11 10.11 0 00-.462-7.729l-.196.145a9.832 9.832 0 01.455 7.442zM27.18 3.547l.141-.207a17.549 17.549 0 00-2.79-.986c-.258.024-.52.044-.779.068 1.169.256 2.32.628 3.428 1.125zm-4.232 33.21c.276.027.555.062.828.096 1.576-.341 3.114-.9 4.566-1.672l-.148-.2a17.474 17.474 0 01-5.246 1.776zm-11.322-1.873l-.142.204a17.63 17.63 0 004.718 1.762c.29-.031.583-.059.876-.086a17.362 17.362 0 01-5.452-1.88z" fill="#fff"/><path d="M37.007 23.614c.034.19.072.38.114.566.251-.924.424-1.862.52-2.804-.062-.576-.1-1.155-.103-1.738-.003-.614.045-1.22.12-1.824a17.724 17.724 0 00-.468-2.714c-.045.186-.087.369-.128.555a17.672 17.672 0 01-.055 7.96zM3.039 15.207l-.083-.652a17.854 17.854 0 00-.617 3.224c.048.659.083 1.324.086 2.004a12.57 12.57 0 01-.083 1.507c.093.924.256 1.845.493 2.748a27.8 27.8 0 00.121-.558 17.611 17.611 0 01.083-8.274zm14.042 21.557c-.293.027-.586.055-.876.086a17.84 17.84 0 007.57.003 66.585 66.585 0 00-.828-.096 17.626 17.626 0 01-5.866.007zM23.75 2.423c.263-.02.521-.045.78-.07a17.806 17.806 0 00-8.573-.12c.228.038.459.073.69.107a17.73 17.73 0 017.104.083zM11.198 34.65c-.2-.121-.404-.242-.6-.37.196.128.396.252.6.37zm1.401-8.305c.117.128.241.255.365.376-.124-.124-.248-.248-.365-.376zm-1.278-1.717c.07.113.138.227.21.341a5.629 5.629 0 01-.21-.341zm-.844 9.577zm-.696-.475a17.081 17.081 0 010-.001zm3.796-6.457zm-.613-.552zm-.711-.769c.069.083.145.166.217.249-.072-.083-.145-.162-.217-.249zm-7.256 2.586zm10.418-.058zm-3.485-2.938zm-2.867 7.642zM5.99 30.015zM4.466 27.6c.038.076.083.149.12.221-.04-.076-.075-.152-.113-.228l-.007.007zm7.154-2.5zm-3.263 7.484zm2.238-9.459zm-3.559 8.152a11.986 11.986 0 01-.39-.445c.128.148.26.297.39.445zM13.27 12.02c-.048.041-.096.082-.141.127.045-.041.093-.082.141-.127zm-8.655-.873l.007.003c.052-.096.104-.196.159-.293-.055.097-.114.194-.166.29zm1.194-1.882zm4.982 6.165zm.467-11.086l-.31.186c.103-.062.21-.12.313-.18l-.003-.006zM8.185 6.595zm3.444 7.312zM6.312 8.6zm5.572 4.944c-.062.083-.12.17-.179.252l.18-.252zm.281-.358zM7.468 7.288zm2.076-1.813c.21-.155.42-.31.634-.455-.213.144-.427.296-.634.455zm4.131 6.2a8.015 8.015 0 00-.197.162c.066-.055.132-.107.197-.162zm-3.49-6.659zm5.504 5.394zm-10.857.354zm2.094-2.889zM5.29 10.017zm28.842-.825zm-5.322 5.449zm-.396-.651zm-.421-.597zm2.989-7.504c.152.12.3.248.449.376a11.67 11.67 0 00-.449-.376zm-.697-.539zm-1.544-1.003zM23.296 10a9.857 9.857 0 011.49.655c-.48-.26-.976-.48-1.487-.66l-.003.004zm1.924.903zm2.408-7.149l-.004.007c.09.045.183.086.273.13-.09-.044-.18-.092-.27-.137zm-1.136 8.066a13.526 13.526 0 00-.259-.214c.09.069.173.141.259.214zm1.511-7.873zm6.849 6.301c-.058-.093-.124-.183-.186-.276.062.093.12.186.18.283l.006-.007zm-3.231-3.821z" fill="#fff"/><path d="M27.544 3.447l.258.128.338.165c.156.08.31.166.466.252a20.45 20.45 0 01.904.535c.093.058.182.12.272.179.138.093.276.183.414.28a30.818 30.818 0 01.68.503 18.46 18.46 0 01.682.562l.21.18a16.214 16.214 0 011.19 1.161c.038.042.08.083.117.128.18.193.352.39.521.59.028.034.055.069.083.1a17.545 17.545 0 01.976 1.293c.03.048.065.096.096.141.142.214.283.428.418.649l.01.013.12.21.197-.14a17.28 17.28 0 00-.58-.928c-.01-.018-.023-.035-.034-.052a19.466 19.466 0 00-.493-.693c-.014-.021-.03-.038-.045-.059-.151-.203-.31-.4-.476-.597l-.086-.106c-.169-.2-.344-.4-.524-.594-.041-.044-.083-.086-.12-.13-.187-.2-.377-.397-.573-.59a19.69 19.69 0 00-1.276-1.131 10.942 10.942 0 00-.231-.183c-.152-.117-.303-.235-.459-.349-.072-.051-.145-.106-.217-.158a14.56 14.56 0 00-.562-.38l-.124-.082a19.37 19.37 0 00-1.493-.859l-.083-.041c-.214-.107-.431-.21-.652-.31l-.138.2c.066.044.138.082.214.113zm-4.921 6.845a9.277 9.277 0 012.721 1.266c.035.024.073.048.107.076.104.072.207.144.307.224.049.038.097.072.145.11.093.073.186.148.276.224l.128.107a9.356 9.356 0 01.859.855c.03.035.061.073.092.107a8.967 8.967 0 01.859 1.166c.01.014.017.027.028.041a11.016 11.016 0 01.375.662l.131.252.197-.145c-.034-.072-.076-.148-.114-.22-.058-.114-.12-.224-.183-.338-.003-.004-.003-.007-.003-.01a10.028 10.028 0 00-.797-1.194c-.044-.059-.09-.114-.134-.169l-.134-.162-.187-.21c-.038-.042-.072-.083-.11-.124-.104-.11-.21-.221-.32-.328l-.004-.003a10.368 10.368 0 00-.41-.376c-.042-.038-.087-.073-.128-.107a6.925 6.925 0 00-.307-.248c-.045-.035-.093-.073-.142-.107a16.08 16.08 0 00-.32-.232l-.124-.082c-.128-.083-.256-.166-.387-.245-.024-.014-.044-.028-.069-.042a9.78 9.78 0 00-2.062-.91c-.083-.024-.162-.052-.245-.076l-.145.21.1.028zm5.983-6.296z" fill="#fff"/><path d="M34.655 9.506c.031.048.066.097.097.141a3.385 3.385 0 00-.097-.14zM27.546 3.45c-.076-.034-.149-.072-.221-.106l-.141.206c.075.035.148.073.22.107l.142-.207zm6.582 5.322c.028.034.056.07.083.107a1.132 1.132 0 01-.083-.107zm-6.321-5.197c.113.055.224.11.338.169-.114-.059-.228-.114-.338-.17zm7.173 6.883c.04.069.079.141.12.214l.2-.145c-.041-.07-.08-.142-.12-.214l-.2.145zm-8.121 2.021l-.004-.003.004.003zm8.31-2.183a.055.055 0 00.012.016c-.008-.004-.012-.012-.012-.016zm-7.556 3.01c.045.055.09.114.135.173a3.77 3.77 0 00-.135-.173zm1.12 1.711l.114.22.197-.144c-.035-.073-.073-.145-.11-.22l-.2.144zm-2.858-3.379c.048.034.093.069.141.107a2.173 2.173 0 01-.141-.107zm-2.962-1.508l.145-.21a7.494 7.494 0 00-.242-.076l-.148.214c.083.02.162.045.245.072zm7.963-4.638c.086.065.172.134.255.203-.083-.069-.169-.134-.255-.203zm-5.904 5.545l.07.042a1.212 1.212 0 00-.07-.042zm7.991-3.641l.118.128c-.038-.045-.08-.087-.118-.128zM27.9 13.672c.024.031.045.063.065.094-.02-.028-.041-.063-.066-.094zm5.7-5.559c.027.035.055.07.083.101-.028-.035-.056-.07-.083-.1zm-5.052 6.559c0 .005.004.009.004.013 0-.008-.004-.013-.004-.013zm-2.228-2.679c.042.034.087.07.129.107-.042-.034-.087-.07-.129-.107zm1.649 1.776z" fill="#fff"/><path d="M28.552 14.679c.062.11.124.224.183.338-.06-.114-.118-.228-.183-.338zm5.655-5.8zm-6.662-5.432c.086.045.172.086.259.128-.087-.042-.17-.087-.26-.128zM33.08 7.52zm1.671 2.127zM27.48 13.14c.044.056.09.108.134.163a6.804 6.804 0 01-.134-.162zm-1.033-1.04zm2.534-7.894c.176.103.352.21.528.32-.176-.11-.352-.213-.528-.32zm2.149 1.49c.146.117.287.238.428.358-.137-.12-.282-.241-.427-.358zm-5.58 5.714c.107.075.214.151.32.23a4.158 4.158 0 00-.32-.23zm4.232-6.7l.414.279a14.36 14.36 0 00-.414-.28zm-3.769 7.034c.103.08.203.166.307.249-.1-.083-.204-.17-.307-.249zm-1.042-.706zm7.992-3.642c-.187-.197-.373-.394-.57-.583a24.03 24.03 0 00-.617-.576 18.285 18.285 0 011.186 1.159z" fill="#fff"/><path d="M27.627 3.754c.09.045.18.093.269.138.034.017.072.034.107.055.214.11.424.224.634.341.035.021.07.038.104.06.48.275.941.572 1.393.892.052.035.1.073.152.11.169.121.334.249.496.377l.204.162c.152.12.3.248.448.375.062.056.124.107.186.163.204.182.407.365.6.558.235.231.463.47.683.707.073.08.142.159.21.238.145.166.29.331.428.5.083.1.162.204.245.307.117.152.235.304.345.455a17.738 17.738 0 01.535.776c.062.093.127.183.186.276l-.004.004c.042.069.09.138.131.207l.2-.145-.01-.014a18.73 18.73 0 00-1.045-1.524c-.145-.19-.293-.376-.445-.56a16.793 16.793 0 00-.604-.69l-.116-.126a22.718 22.718 0 00-.57-.587 19.35 19.35 0 00-.62-.572c-.07-.062-.142-.12-.21-.183l-.428-.359c-.087-.069-.17-.134-.255-.203a30.818 30.818 0 00-.404-.303c-.093-.066-.183-.135-.276-.2a14.36 14.36 0 00-.414-.28c-.09-.062-.182-.12-.272-.18-.176-.11-.348-.216-.528-.32-.124-.072-.248-.145-.376-.214-.155-.086-.31-.172-.465-.251-.11-.06-.224-.114-.338-.17-.086-.04-.176-.082-.262-.124l-.142.204c.073.034.149.072.221.107l.007-.007zm-2.656 7.283c.024.014.045.028.07.041.13.08.258.16.386.245l.124.083c.107.076.214.152.32.231.049.035.094.07.142.107.103.08.207.166.307.248.041.035.086.07.127.107.138.12.276.245.41.376h.004c.11.107.217.217.32.328l.115.124.186.21c.045.055.09.107.134.162l.135.17c.052.065.103.13.152.196.024.03.045.062.065.093a9.418 9.418 0 01.766 1.252l.196-.145c-.041-.08-.082-.155-.124-.235a8.666 8.666 0 00-.345-.572l-.051-.08a9.296 9.296 0 00-.821-1.075c-.035-.042-.072-.08-.107-.12a9.54 9.54 0 00-.459-.484 9.332 9.332 0 00-.39-.358 4.847 4.847 0 00-.148-.125c-.086-.072-.169-.144-.258-.213-.055-.045-.114-.087-.173-.131a10.561 10.561 0 00-.255-.19l-.165-.114a6.919 6.919 0 00-.29-.19 12.909 12.909 0 00-.5-.297l-.062-.034a10.27 10.27 0 00-1.49-.655l.003-.003c-.079-.028-.162-.052-.241-.08l-.145.21a10.09 10.09 0 012.062.918zm3.973 13.098c.038-.076.076-.152.11-.228-.037.076-.072.152-.11.228zm.321-.69c-.035.087-.073.17-.11.256l.11-.256zm3.238 8.315zM26.6 27.119a1.65 1.65 0 00.08-.073 1.45 1.45 0 00-.08.073zm-.619.493l.07-.052c-.021.017-.045.034-.07.052zm2.732-3.052l.103-.187c-.038.062-.069.124-.103.186zm6.818 3.034l-.003-.004c-.231.449-.483.887-.755 1.314.268-.427.524-.862.758-1.31zm-7.352-2.207c.03-.041.055-.083.087-.125-.032.042-.06.084-.087.125zm-.304.401c.028-.035.055-.073.083-.111-.027.038-.055.073-.083.11zm.58-.812c.031-.048.062-.1.093-.151-.03.051-.058.103-.093.151zm4.614 6.177zm-4.445 3.593c.144-.083.29-.169.43-.255-.144.086-.289.166-.434.248l.004.007zm3.165-2.3zm-2.016 1.589zm-5.053-5.626l.025-.015a.2.2 0 01-.025.015zm6.47 4.565c-.2.169-.407.327-.614.486.21-.159.414-.32.614-.486zM10.85 22.387a9.362 9.362 0 001.038 2.238 9.546 9.546 0 01-.942-1.966l-.096-.272zM7.405 32.36zm-1.828-2.09zm1.087 1.317zm1.319 1.317zm-4.137-5.451l.093.182c.069.135.141.266.21.397-.103-.193-.203-.39-.3-.586l-.003.006zm11.011.151c-.055-.034-.11-.072-.166-.11l.166.11zM8.633 33.46zm2.517 1.724l.192.11.004-.003c-.173-.093-.345-.19-.514-.293l.317.186zm2.969-8.104l-.142-.11c.045.038.094.076.142.11zm-4.141 7.377zm5.421-6.535a5.374 5.374 0 01-.307-.176c.1.059.203.117.307.176zm.385.2c-.065-.032-.13-.063-.196-.097.065.03.13.065.197.097zm-1.3-.77l-.155-.114c.052.042.104.08.155.114zm-2.318-2.314zm3.254 3.266s-1.587 1.36-2.622 2.911c-1.165 1.748-1.386 3.555-1.386 3.555.072.042.145.076.214.118l4.28-6.17c-.076-.038-.41-.38-.487-.414zm-.642-.179c.005.004.01.004.013.009-.004 0-.008-.005-.013-.01zm-7.032 3.89c.01.01.017.02.028.028-.01-.01-.021-.018-.028-.028zm-1.1-1.183l-.155-.186c.048.062.104.124.155.186zm-.578-.717l-.077-.097c.025.031.052.063.077.097zm2.416 2.587a3.882 3.882 0 01-.131-.118c.045.038.09.08.131.118zm1.345 1.062c-.017-.01-.035-.025-.049-.035.018.01.032.024.049.035zM7.2 31.46zm2 1.832l-.14-.108c.05.035.094.07.14.108zm2.92-7.505l.134.169a7.083 7.083 0 00-.135-.17zm1.361 1.403l.098.084c-.032-.028-.063-.056-.098-.084zm-2.204-2.638c.014.028.032.052.046.076-.018-.024-.032-.052-.046-.076zm-.678 9.728c-.042-.023-.08-.051-.122-.075.039.024.08.052.122.076zm-5.546-5.648c-.018-.031-.039-.062-.056-.09.017.028.035.059.056.09z" fill="#fff"/><path d="M16.184 28.311l-.262-.12a1.72 1.72 0 01-.138-.07 3.562 3.562 0 01-.197-.096c-.065-.034-.127-.069-.193-.103a5.398 5.398 0 01-.307-.176l-.234-.141a2.683 2.683 0 01-.162-.11 4.304 4.304 0 01-.207-.142 88.326 88.326 0 01-.155-.114c-.073-.052-.142-.107-.21-.159l-.142-.11a11.252 11.252 0 01-.676-.597 9.378 9.378 0 01-.362-.376c-.041-.044-.08-.09-.117-.13a14.413 14.413 0 01-.224-.26l-.125-.154c-.069-.087-.134-.176-.2-.262-.038-.049-.072-.1-.107-.149-.075-.103-.144-.21-.217-.32l-.062-.097a9.633 9.633 0 01-1.038-2.238l-.014-.038-.203.148c.024.08.052.162.083.242a9.47 9.47 0 00.679 1.527c.003.004.003.007.007.01a8.124 8.124 0 00.324.539c.076.117.152.23.231.344l.093.128c.076.104.152.204.231.307l.107.138c.083.1.17.2.255.3.035.038.07.08.104.12.124.135.252.27.383.397l.007.007c.11.107.22.21.334.31l.134.114c.073.062.142.121.214.18.059.044.114.093.173.137.058.045.117.09.176.132l.207.151c.04.031.086.059.127.087.42.286.862.534 1.314.748l.224.103.145-.207zM11.27 34.97a.235.235 0 01-.037-.024c-.07-.038-.135-.08-.204-.117a13.973 13.973 0 01-.482-.293l-.197-.125a14.12 14.12 0 01-.6-.407c-.062-.04-.12-.086-.18-.13a18.99 18.99 0 01-.523-.397l-.11-.083c-.204-.162-.4-.328-.597-.5-.049-.041-.097-.086-.145-.127-.2-.18-.4-.363-.593-.552v-.004c-.2-.196-.397-.396-.587-.6-.062-.065-.12-.134-.179-.2-.128-.141-.252-.283-.376-.424l-.196-.238a12.594 12.594 0 01-.332-.417l-.186-.245c-.114-.155-.224-.31-.334-.466-.049-.069-.097-.134-.142-.203-.148-.22-.29-.441-.427-.666-.045-.072-.086-.148-.128-.22a17.95 17.95 0 01-.272-.476 642.51 642.51 0 00-.155-.29c-.042-.08-.087-.158-.128-.241l.003-.004a5.011 5.011 0 01-.11-.22l-.197.144c.097.197.194.393.297.587l.038.069c.407.748.869 1.472 1.39 2.169l.138.18c.124.161.251.32.379.478a15.432 15.432 0 00.569.655c.059.066.12.135.18.2.182.194.368.387.561.577l.028.03.02.021c.173.17.352.331.532.493.055.052.114.1.169.149.158.138.317.276.48.407.034.027.065.055.1.082.189.152.382.3.575.442a24.914 24.914 0 00.669.472l.124.083c.21.138.424.273.638.4.031.017.062.038.093.055.17.1.342.197.514.293l.138-.2c-.072-.038-.145-.076-.217-.117z" fill="#fff"/><path d="M14.168 27.425c-.059-.042-.117-.087-.176-.131.062.044.117.086.176.13zm1.651.983l-.138.203c.076.035.148.07.224.1l.138-.2c-.076-.03-.148-.069-.224-.103zm-1.313-.745l-.128-.087.128.087zM6.46 30.988l-.2-.238c.065.079.13.158.2.238zm2.588 2.493l-.111-.083c.038.028.076.055.11.083zm-.705-.587c-.048-.041-.096-.086-.145-.127.045.044.093.086.145.127zm3.069 1.873l-.142.203c.073.041.145.076.214.117l.142-.203a4.357 4.357 0 01-.214-.117zm-.78-12.27l-.21.152.083.241.207-.152a6.665 6.665 0 01-.08-.241zm-6.269 4.88a4.364 4.364 0 01-.11-.221l-.204.148c.034.073.076.145.11.221l.204-.148zm9.457-.221a5.347 5.347 0 01-.215-.18c.073.063.145.121.214.18zm-3.274 7.384l-.196-.125c.065.042.134.083.196.124zm1.502-9.249l-.094-.128c.031.041.063.083.094.128zm.702.859l-.107-.122c.034.042.069.084.107.122zm-1.35-1.871c-.004-.004-.004-.009-.008-.013.004.004.008.009.008.013zm.989 1.454a4.28 4.28 0 01-.108-.136c.035.042.07.09.108.136zm-2.636 8.275a6 6 0 01-.18-.131c.059.045.117.086.18.131zm-.179-.131zm-5.418-6.349c.042.083.086.162.128.242-.042-.08-.083-.163-.124-.245l-.004.003zm2.677 3.887a40.54 40.54 0 01-.376-.424c.124.14.252.282.376.424zm4.197 3.417zm-2.09-1.434a16.624 16.624 0 01-.001 0zm-3.674-3.977a15.97 15.97 0 01-.427-.665c.138.224.283.445.427.665zm.994 1.329a12.594 12.594 0 01-.331-.418c.11.141.22.28.33.417zm5.01 4.22c-.013-.01-.024-.013-.038-.024.014.01.025.018.039.025zM7.6 32.215zm.598.552zM5.743 30.09c-.114-.151-.224-.31-.335-.465.11.155.22.31.335.465zm4.969-7.352zm3.666 4.835c-.07-.048-.138-.1-.207-.148.065.052.134.1.207.148zm1.441.835zm-2.214-1.431zm-1.327-1.384zm-.325-.433zm.689.868c-.086-.1-.172-.196-.255-.3.082.104.169.204.255.3z" fill="#fff"/><path d="M11.199 34.65a13.296 13.296 0 01-.6-.37c-.042-.024-.08-.052-.121-.08a19.428 19.428 0 01-.648-.437c-.018-.01-.035-.024-.049-.035-.196-.141-.39-.29-.58-.438l-.137-.106a12.88 12.88 0 01-.707-.6 16.389 16.389 0 01-.566-.525l-.017-.017a20.348 20.348 0 01-.569-.583c-.055-.062-.11-.12-.165-.183a12.058 12.058 0 01-.39-.444l-.155-.187a20.498 20.498 0 01-.424-.53l-.076-.097c-.335-.449-.649-.91-.938-1.387l-.055-.09a18.06 18.06 0 01-.38-.658l-.03-.055a6.969 6.969 0 01-.122-.22l.007-.004a5.637 5.637 0 01-.11-.22l-.2.147.124.245c.052.097.1.193.155.29.09.159.18.317.273.476.041.072.083.148.127.22.138.225.28.445.428.666.045.069.097.134.145.203.11.156.217.31.33.466.063.083.125.162.187.245.107.141.217.28.331.417.066.08.131.159.2.238.12.145.248.286.376.428.062.065.12.134.18.2a15.975 15.975 0 00.59.603c.192.19.392.373.592.552.049.041.097.086.145.128.197.172.397.338.597.5.034.027.072.055.11.082.172.135.348.27.524.397.059.045.12.086.18.131a14.016 14.016 0 00.796.531c.159.1.32.2.483.293.069.038.135.08.203.117a.324.324 0 01.038.021l.142-.203c-.083-.049-.152-.09-.224-.128zm-.604-11.525c.19.496.418.972.68 1.427l.045.076c.069.114.137.228.21.342.027.045.055.09.086.13.062.094.128.187.193.28a6.596 6.596 0 00.31.407c.046.055.09.114.135.169.07.083.145.166.217.248.042.049.083.097.128.145a9.463 9.463 0 00.883.845c.03.028.065.055.096.083a10.818 10.818 0 00.607.465c.194.138.39.27.593.39.004.003.007.003.01.007a10.121 10.121 0 00.894.48l.141-.204a9.747 9.747 0 01-1.314-.748l-.127-.087a7.779 7.779 0 01-.207-.151c-.059-.042-.117-.087-.176-.131a9.97 9.97 0 01-.517-.431 9.416 9.416 0 01-.335-.31l-.007-.008a6.936 6.936 0 01-.382-.4c-.035-.038-.07-.08-.104-.12-.086-.1-.172-.197-.255-.3-.038-.045-.072-.09-.107-.135-.08-.1-.159-.204-.231-.307l-.093-.128a6.096 6.096 0 01-.231-.345l-.062-.096a11.38 11.38 0 01-.27-.452 9.877 9.877 0 01-.679-1.527l-.207.151c.014.08.045.159.076.235zm2.027-9.733c.062-.075.128-.151.193-.227-.065.072-.127.152-.193.227zM7.118 6.947zm4.277-3.241l-.19.106a17.335 17.335 0 00.19-.106zm-2.89 1.965zm.779-.61zm3.234 8.456a9.467 9.467 0 00-1.479 2.576l.083-.2a9.505 9.505 0 011.396-2.376zm3.85-2.877a9.525 9.525 0 00-2.549 1.546 9.512 9.512 0 012.338-1.452l.21-.093zm-12.284.473l-.1.19.004.003c.252-.49.527-.972.827-1.441-.262.403-.506.82-.73 1.248zM6.56 7.551zm9.352 2.752a5.56 5.56 0 01.228-.097l-4.456-6.1c-.072.038-.14.08-.213.12l4.441 6.077zm-5.221 5.355l-6.187-4.29c-.038.073-.079.145-.113.214l6.207 4.307c.028-.079.059-.155.093-.23zm-.513-10.637s.005-.005.01-.005c-.005 0-.005 0-.01.005zm4.359 6.027c-.018.01-.031.02-.049.031a.376.376 0 00.049-.031zm-9.915.103c-.038.072-.08.145-.117.214l6.187 4.29c.03-.076.065-.152.096-.228l-6.166-4.276zm11.066-.745l.224-.103-4.441-6.077c-.073.038-.142.08-.214.121 0 0 1.459 2.986 2.12 3.87.877 1.165 2.311 2.19 2.311 2.19zM9.412 5.572c.042-.031.087-.066.132-.097a3.196 3.196 0 00-.132.097zm4.776 5.714l-.11.08c.037-.025.072-.053.11-.08zm-2.179 2.1l-.124.162c.041-.055.082-.11.124-.162zm.335-.414c-.062.072-.124.141-.183.214.062-.073.12-.145.183-.214zm.443-.493zm.343-.332c-.118.107-.228.217-.342.331.11-.114.224-.224.341-.33zM8.773 6.08c.005-.004.01-.004.014-.009-.01.005-.01.01-.014.01zM6.277 8.637c.01-.014.021-.024.032-.038a.147.147 0 01-.032.038zm-.583.786l.114-.158c-.041.051-.076.103-.114.158zm-.441.649c.01-.017.024-.035.035-.056a.302.302 0 01-.035.056z" fill="#fff"/><path d="M11.04 16.093a9.465 9.465 0 011.479-2.576 2.43 2.43 0 01.107-.124 10.042 10.042 0 01.514-.572c.11-.115.224-.221.337-.328.066-.063.135-.121.204-.18.048-.041.096-.086.145-.127a9.469 9.469 0 012.548-1.545l.07-.031-.146-.2a9.809 9.809 0 00-1.062.507 8.503 8.503 0 00-.4.234c-.007.007-.017.01-.024.014a7.473 7.473 0 00-.369.241l-.059.042c-.11.075-.217.155-.324.234l-.103.083c-.09.072-.183.141-.27.217-.058.049-.113.1-.172.152-.065.055-.13.11-.193.169-.12.11-.238.227-.355.345-.117.117-.228.241-.338.362-.055.062-.107.127-.162.193a3.73 3.73 0 00-.152.18c-.072.089-.138.179-.207.272-.027.038-.055.072-.083.11-.079.11-.151.22-.227.331-.014.02-.028.038-.041.059-.08.124-.156.248-.232.372-.006.007-.01.018-.017.024-.08.135-.151.27-.224.404 0 0 0 .003-.003.003a9.75 9.75 0 00-.39.842l-.093.23.203.142.038-.08zm-6.742-4.866c.066-.128.138-.252.207-.376a14.406 14.406 0 01.48-.807l.165-.255c.097-.148.197-.297.3-.441l.145-.207c.148-.207.3-.407.459-.607l.134-.166a17.4 17.4 0 01.397-.472c.051-.059.103-.121.158-.18.18-.2.359-.396.549-.59l.003-.003.003-.003c.19-.193.383-.38.576-.562.059-.056.118-.107.176-.162.152-.138.307-.276.462-.407.056-.045.107-.093.162-.138.197-.162.397-.321.597-.476.066-.052.135-.1.204-.148a16.954 16.954 0 01.682-.48c.166-.11.331-.217.497-.32.097-.063.197-.121.296-.18.125-.072.249-.148.373-.217v.003c.072-.041.141-.082.214-.12l-.142-.197a17.765 17.765 0 00-2.114 1.352l-.155.114c-.21.162-.42.327-.627.496-.045.038-.087.076-.131.11a27.95 27.95 0 00-.497.435c-.055.052-.114.104-.169.155a15.22 15.22 0 00-1.148 1.176l-.152.173c-.145.169-.286.338-.424.507-.035.045-.073.086-.107.13-.166.211-.328.425-.483.639-.038.051-.072.103-.11.158-.125.18-.249.359-.366.538-.034.055-.072.107-.107.162-.3.473-.576.952-.827 1.442l.2.138a2.23 2.23 0 00.12-.214z" fill="#fff"/><path d="M5.45 9.348l.145-.207c-.048.065-.097.138-.145.207zm-.463.692l.166-.254a7.928 7.928 0 00-.166.255zm1.597-2.148c.052-.058.103-.12.159-.179l-.159.18zm4.314 7.908l-.207-.142-.093.231.207.145c.03-.08.062-.155.093-.234zM7.301 7.113l-.005.005.005-.005zm.573-.563c.059-.055.117-.106.176-.162-.059.056-.117.11-.176.163zm3.638 8.006l.014-.025c-.003.007-.01.015-.014.025zm2.866-3.105l.059-.041c-.017.01-.038.027-.06.041zM10.656 4.42c.097-.063.197-.121.297-.18-.1.059-.2.12-.297.18zm.817-.193c.072-.038.141-.083.214-.121l-.148-.2c-.073.038-.142.083-.21.12l.144.2zm.55 9.539c.027-.038.055-.073.083-.111a3.28 3.28 0 01-.083.11zm1.927-1.997l.104-.084c-.034.025-.07.056-.104.084zm-4.042-6.86c.083-.059.166-.114.248-.169-.082.055-.165.114-.248.169zm6.384 5.501l-.148-.204c-.076.031-.152.066-.228.097l.148.203.228-.096zm-3.328 2.241c.117-.117.234-.235.355-.345a5.5 5.5 0 00-.355.345zM8.512 5.982l.158-.138a3.028 3.028 0 01-.158.138zm4.997 6.152c.058-.052.114-.104.172-.152-.058.048-.114.103-.172.152zM9.27 5.371zm-4.968 5.856c-.038.072-.08.141-.117.214l.203.141c.038-.072.076-.145.114-.214l-.2-.14zm10.528-.072zm-.393.251zm1.623-.9zm-4.534 4.021zm2.528-2.842c.107-.079.213-.158.324-.234-.107.076-.217.152-.324.234zm-.739.621c.063-.058.128-.113.194-.168l-.194.168zm-1.211 1.352c.07-.09.135-.182.207-.272l-.207.272zm1.578-1.676c.09-.075.179-.144.269-.217l-.27.217zM10.898 15.8zm.389-.842zM4.68 10.544c.1-.168.2-.338.308-.503-.107.169-.207.335-.307.503zm-.382.683l.207-.376c-.07.12-.138.248-.207.376zm7.028-7.204c-.124.069-.248.145-.372.217l.372-.217zM6.188 8.368zm.555-.655zM5.594 9.14zm2.455-2.748zm.625-.545z" fill="#fff"/><path d="M4.615 11.148c.051-.097.11-.194.165-.29l.055-.097c.135-.234.276-.465.421-.693.01-.017.024-.034.034-.055.131-.2.266-.4.404-.597l.114-.158c.151-.21.31-.42.472-.624a18.321 18.321 0 01.51-.61l.135-.156a17.392 17.392 0 011.12-1.148c.05-.045.094-.09.142-.131a20.94 20.94 0 01.597-.525c.207-.172.417-.337.63-.5.042-.03.087-.065.132-.096.21-.155.42-.307.638-.455.003 0 .003-.004.007-.004a19.182 19.182 0 01.762-.486c.103-.062.207-.128.31-.186l.004.007c.069-.042.141-.083.214-.121l-.145-.2a13.564 13.564 0 00-.673.393c-.169.104-.334.21-.496.32-.083.056-.166.115-.249.17-.148.1-.293.207-.434.31a15.015 15.015 0 00-.8.624c-.055.045-.107.093-.159.138-.155.135-.31.27-.462.407l-.176.162c-.196.183-.39.37-.58.562l-.003.004-.003.003c-.19.193-.369.39-.548.59-.052.059-.104.12-.159.18a26.129 26.129 0 00-.531.634c-.159.2-.31.403-.459.61l-.145.207c-.103.145-.203.293-.3.442a16.216 16.216 0 00-.851 1.441l.203.141c.038-.072.08-.144.117-.213h-.013zM10.9 15.8c.117-.287.244-.566.389-.842v-.003c.072-.135.145-.27.224-.404.004-.01.01-.017.014-.027.072-.125.148-.249.231-.373.014-.02.028-.038.041-.059.073-.11.149-.22.228-.33.028-.039.055-.073.083-.11.069-.09.134-.184.207-.273.048-.062.1-.121.151-.18.056-.065.107-.13.162-.193a11.165 11.165 0 01.693-.707c.063-.058.128-.114.194-.169.058-.052.114-.103.172-.152.09-.075.18-.144.27-.217l.103-.082c.107-.08.213-.16.324-.235l.058-.041c.121-.083.245-.162.37-.242l.024-.014c.13-.082.265-.158.4-.234h.003c.273-.152.548-.286.831-.41l-.148-.204c-.076.035-.152.069-.224.104l.003.003c-.4.19-.783.403-1.152.641-.017.01-.03.021-.048.031a5.906 5.906 0 00-.303.207l-.11.08c-.084.058-.166.12-.25.182-.05.042-.106.083-.158.128a8.25 8.25 0 00-.196.162c-.07.059-.138.12-.207.183a2.484 2.484 0 00-.142.128c-.113.106-.227.217-.341.33-.11.114-.22.232-.324.349-.042.045-.08.093-.12.141l-.184.214a9.602 9.602 0 00-.155.2l-.124.162c-.062.083-.12.17-.18.252-.023.034-.048.072-.075.107a9.833 9.833 0 00-.2.314c-.01.013-.017.027-.028.044-.227.376-.434.766-.614 1.17l-.003-.004a6.428 6.428 0 00-.097.228l.207.145zm19.69 18.253a12.289 12.289 0 01-.001 0zm-3.394-8.211zm.881-1.172c-.038.058-.076.113-.114.168.041-.058.08-.113.114-.169zm.485-.859c-.038.08-.083.155-.125.235.045-.08.087-.156.125-.235zm-2.057 2.738a.069.069 0 01-.02.015c.008-.004.016-.007.02-.015zm6.933 4.921zm1.669-2.19zm-2.938 3.476c-.096.09-.19.176-.286.262.096-.082.19-.172.286-.262zm-.524.466c-.097.083-.19.162-.287.241.097-.079.194-.162.287-.241zm3.915-4.683zm.5-.914l.096-.19-.007-.003c-.162.33-.334.662-.517.986.148-.262.293-.524.428-.793zm-3.315 4.579c-.117.118-.235.238-.355.352.117-.114.238-.231.355-.352zm-4.259 3.176l.187-.103c.093-.051.186-.107.279-.158-.155.09-.31.175-.466.262zm1.566-.948c-.121.08-.238.162-.363.238.125-.079.245-.158.363-.238zm4.235-4.807l-.062.087.062-.087zm-6.021-4.362c.065-.093.13-.19.193-.283-.066.093-.128.186-.193.283zm4.258 6.476c.007-.007.014-.018.024-.024-.007.006-.014.017-.024.024zm-3.71-7.366l.13-.238c-.04.08-.086.159-.13.238zm-.266.455c.055-.09.11-.176.162-.269-.052.09-.107.18-.162.27zm-1.341 1.717zm-1.155 1.015zm-1.308.834zm5.836 5.066a3.53 3.53 0 01-.148.11c.048-.038.096-.072.148-.11zm-.689.493l-.121.084c.041-.028.083-.056.121-.084zm-.804.521c-.01.007-.021.01-.032.018a.211.211 0 00.032-.018z" fill="#fff"/><path d="M28.986 22.835l-.031.079c-.035.09-.07.18-.107.269-.024.062-.052.12-.076.183-.038.086-.08.176-.12.262-.028.062-.06.124-.09.186-.038.08-.08.155-.121.231a3.766 3.766 0 01-.11.204c-.038.065-.08.13-.118.196-.044.076-.09.148-.134.224-.035.059-.076.114-.114.17a5.875 5.875 0 01-.276.39c-.058.078-.117.161-.18.237-.044.059-.096.114-.144.172a11.101 11.101 0 01-.51.569 8.273 8.273 0 01-.352.342c-.007.003-.01.01-.017.014a9.477 9.477 0 01-2.77 1.783l-.282.117.144.196c.08-.03.156-.058.235-.093a9.702 9.702 0 002.093-1.203l.035-.028c.12-.09.238-.183.351-.28.049-.04.097-.085.145-.127a8.648 8.648 0 00.593-.555 9.26 9.26 0 00.356-.383c.027-.03.051-.062.079-.093.086-.1.172-.203.255-.307a8.123 8.123 0 00.307-.417c.017-.024.034-.052.052-.076.08-.117.158-.235.234-.355.01-.018.021-.038.035-.055.08-.128.155-.26.23-.39.008-.01.011-.02.018-.031a9.35 9.35 0 00.22-.42c.004-.004.004-.011.008-.015a10.702 10.702 0 00.393-.92l.086-.235-.207-.141-.11.3zm6.859 4.68l-.01.017c-.035.069-.073.134-.108.203a13.375 13.375 0 01-.417.752 19.424 19.424 0 01-.858 1.328c-.028.038-.056.072-.08.11-.13.183-.269.362-.407.538l-.165.207c-.12.152-.248.3-.376.448-.055.062-.11.128-.166.19-.182.204-.365.404-.558.604-.19.196-.387.382-.583.569l-.18.165c-.148.135-.296.266-.448.393-.062.052-.12.104-.183.155-.2.166-.4.325-.606.483-.056.042-.11.08-.166.12a23.71 23.71 0 01-.472.339c-.083.058-.17.114-.252.169-.142.096-.286.186-.431.28-.08.047-.159.1-.235.147-.193.118-.386.228-.582.338-.073.038-.145.08-.214.118l.145.196c.155-.083.313-.172.465-.258l.148-.087a18.893 18.893 0 00.59-.362c.12-.079.241-.158.359-.238l.213-.145c.11-.075.218-.155.325-.234.076-.055.155-.11.23-.169.1-.076.2-.155.3-.234.08-.063.16-.125.239-.19.096-.08.19-.159.286-.242.08-.065.159-.13.234-.2.097-.086.193-.175.287-.262.072-.069.148-.134.217-.2.12-.114.238-.23.355-.351.041-.042.086-.083.131-.128.007-.01.017-.017.024-.028a17.023 17.023 0 00.707-.772 16.041 16.041 0 00.538-.652c.345-.438.666-.886.962-1.345.031-.048.062-.096.09-.145a20.678 20.678 0 00.434-.72c.183-.325.356-.656.518-.987l-.2-.138c-.031.07-.066.145-.1.218z" fill="#fff"/><path d="M35.638 27.373l.203.141c.038-.072.07-.148.107-.22l-.203-.142c-.038.072-.07.145-.107.22zm-2.214 3.742l-.165.19c.058-.063.11-.128.165-.19zM28.078 25.1l-.052.077c.018-.025.035-.049.052-.077zm2.622 8.573c-.055.042-.11.083-.166.121.052-.041.11-.08.166-.12zm-1.875-9.838c-.005.004-.005.012-.009.016 0-.004.005-.008.009-.016zm1.236 10.298c-.082.058-.169.113-.251.168l.251-.168zm2.053-1.656l-.18.166a7.37 7.37 0 00.18-.166zm-.628.559l-.182.155c.062-.048.124-.103.183-.155zm-3.138-8.342c-.01.017-.02.038-.034.055l.034-.055zm-4.768 3.969l.144.197c.076-.032.155-.06.234-.094l-.144-.196c-.08.034-.156.062-.235.093zm5.017-4.39c-.007.01-.01.022-.018.033.004-.011.011-.022.018-.033zm-.187 10.59l-.217.114.149.2c.072-.038.145-.08.213-.117l-.144-.197zm.803-11.946l.203.142c.031-.08.059-.16.087-.238l-.204-.142c-.024.083-.055.159-.086.238zm.162 11.663l-.238.149c.082-.048.158-.1.238-.148zm6.087-6.355a8.84 8.84 0 01-.152.262c.052-.086.1-.172.152-.262zm-9.521-.887c-.014.01-.024.021-.035.028a.25.25 0 00.035-.028zm8.512 2.473l-.084.111a1.15 1.15 0 00.084-.11zm-8.016-2.879c-.049.041-.097.086-.145.127.052-.041.096-.086.145-.127zm1.025-1.032l-.08.095c.028-.032.055-.063.08-.094zm1.354-2.051a9.789 9.789 0 01-.22.42c.076-.138.148-.279.22-.42zm-2.523 3.211zm2.021-2.311c-.076.12-.156.238-.235.355.083-.117.159-.238.235-.355zm-.928 1.245zm1.193-1.69a8.862 8.862 0 01-.231.39c.079-.128.155-.26.23-.39zm-.552.876c-.076.11-.16.217-.242.324.083-.11.166-.217.242-.324zm-.311.413c-.083.104-.169.204-.255.307.086-.1.172-.203.255-.306zm7.174 3.577zm-5.859-5.783zm3.669 8.521zm1.672-1.986zm1.355-2.187zm-2.468 3.57zm-4.704 3.758z" fill="#fff"/><path d="M29.031 23.387a9.633 9.633 0 01-.207.451l-.007.014a9.616 9.616 0 01-.22.42c-.007.011-.01.022-.018.032a6.378 6.378 0 01-.23.39c-.011.017-.021.038-.035.055-.076.12-.155.238-.235.355l-.051.076c-.076.11-.159.217-.242.324l-.069.093a19.41 19.41 0 01-.252.307c-.027.031-.051.062-.079.093a7.468 7.468 0 01-.355.383 8.77 8.77 0 01-.362.352c-.076.069-.152.134-.231.203l-.145.128c-.117.096-.235.19-.352.279-.01.01-.024.017-.034.028a9.87 9.87 0 01-2.093 1.207l.144.196c.259-.11.514-.227.762-.362.007-.003.018-.007.025-.014.427-.227.841-.49 1.241-.786l.069-.052c.186-.141.369-.286.545-.441.027-.024.055-.048.08-.073.178-.158.354-.324.527-.5a8.81 8.81 0 00.345-.372c.027-.031.051-.062.079-.093.083-.097.166-.193.245-.293l.083-.11c.072-.097.148-.194.217-.29a13.518 13.518 0 00.28-.407l.092-.152c.056-.09.11-.176.162-.269l.104-.186c.045-.08.09-.159.13-.238.039-.076.077-.152.111-.228.035-.069.07-.138.1-.21.038-.083.073-.17.11-.255a7.53 7.53 0 00.156-.387l-.204-.14a9.25 9.25 0 01-.186.472z" fill="#fff"/></svg>